<?xml version="1.0" encoding="iso-8859-1"?>
<!-- Generator: Adobe Illustrator 19.0.0, SVG Export Plug-In . SVG Version: 6.00 Build 0)  -->
<svg version="1.1" id="Layer_1" xmlns="http://www.w3.org/2000/svg" xmlns:xlink="http://www.w3.org/1999/xlink" x="0px" y="0px"
	 viewBox="0 0 280.212 280.212" style="enable-background:new 0 0 280.212 280.212;" xml:space="preserve">
<g>
	<path style="fill:#324D5B;" d="M66.157,205.96c-0.481-1.733-39.003-18.657-40.368-20.022c-0.14-0.14-10.886-4.218-14.99-0.123
		c-4.122,4.104-0.219,14.649,0.114,14.981c1.409,1.409,22.122,36.211,23.916,36.666c3.5,0.91,7.351,0.009,10.063-2.704
		C47.649,232.02,67.138,209.513,66.157,205.96z M94.344,254.457c-1.365-1.374-18.307-39.878-20.039-40.35
		c-3.544-0.971-26.069,18.491-28.825,21.247c-2.722,2.713-3.605,6.563-2.704,10.063c0.464,1.794,35.275,22.49,36.692,23.899
		c0.324,0.333,10.877,4.218,14.99,0.114C98.562,265.334,94.484,254.588,94.344,254.457z"/>
	<path style="fill:#D1D5D7;" d="M151.032,100.32c-0.7-1.435-123.623-94.71-124.813-95.901C20.312-1.488,10.624-1.374,4.595,4.655
		s-6.143,15.717-0.236,21.623c1.251,1.251,94.465,124.315,95.971,125.023c5.662,2.678,27.845-13.538,32.614-18.307
		C137.757,128.182,153.823,106.016,151.032,100.32z M275.854,253.897c-1.199-1.19-94.43-124.148-95.866-124.857
		c-5.688-2.774-27.906,13.336-32.728,18.158c-4.787,4.778-21.037,26.996-18.377,32.658c0.718,1.514,123.816,94.693,125.058,95.944
		c5.916,5.907,15.603,5.784,21.658-0.263C281.647,269.5,281.761,259.804,275.854,253.897z"/>
	<g>
		<path style="fill:#324D5B;" d="M164.246,143.356l106.253,135.621c1.846-0.77,3.588-1.916,5.102-3.43
			c6.047-6.038,6.161-15.743,0.254-21.65c-0.893-0.884-52.75-69.202-79.817-104.389l-11.997-14.894
			C184.04,134.614,164.246,143.356,164.246,143.356z M139.157,118.259l8.725-19.794l-22.219-17.984
			C89.426,52.645,27.067,5.268,26.219,4.419c-2.625-2.625-6.003-3.99-9.468-4.244h-2.328c-3.562,0.28-7.079,1.733-9.827,4.48
			C3.099,6.16,1.97,7.884,1.2,9.722L139.157,118.259z"/>
	</g>
	<path style="fill:#2F4856;" d="M94.466,269.43c4.104-4.104,0.018-14.841-0.123-14.973c-1.304-1.313-16.784-36.412-19.681-39.983
		l-30.724,30.724l4.41,4.41c10.002,6.624,30.059,18.657,31.127,19.716C79.8,269.657,90.354,273.543,94.466,269.43z"/>
	<path style="fill:#DEE3E6;" d="M246.985,33.279c14.841,14.859,3.912,49.88-10.562,64.371
		C221.949,112.142,33.464,276.745,18.632,261.887C3.79,247.036,168.21,58.35,182.693,43.859
		C197.166,29.376,232.152,18.429,246.985,33.279z"/>
	<path style="fill:#E2574C;" d="M171.815,108.449c5.706,5.714,3.973,16.714-3.877,24.572c-7.858,7.858-18.858,9.6-24.581,3.877
		c-5.706-5.714-3.964-16.705,3.877-24.572C155.101,104.476,166.101,102.735,171.815,108.449z"/>
	<path style="fill:#324D5B;" d="M246.985,33.279c-11.63-11.647-35.616-7.403-52.426,1.943l1.531,0.035
		c9.635,5.522,18.727,12.374,26.97,20.617c8.235,8.235,15.095,17.335,20.608,26.97l1.094,3.457
		C254.31,69.447,258.746,45.049,246.985,33.279z"/>
</g>
<g>
</g>
<g>
</g>
<g>
</g>
<g>
</g>
<g>
</g>
<g>
</g>
<g>
</g>
<g>
</g>
<g>
</g>
<g>
</g>
<g>
</g>
<g>
</g>
<g>
</g>
<g>
</g>
<g>
</g>
</svg>
