<?xml version="1.0" encoding="iso-8859-1"?>
<!-- Generator: Adobe Illustrator 19.0.0, SVG Export Plug-In . SVG Version: 6.00 Build 0)  -->
<svg version="1.1" id="Layer_1" xmlns="http://www.w3.org/2000/svg" xmlns:xlink="http://www.w3.org/1999/xlink" x="0px" y="0px"
	 viewBox="0 0 496.2 496.2" style="enable-background:new 0 0 496.2 496.2;" xml:space="preserve">
<path style="fill:#48A1AF;" d="M248.1,0C111.1,0,0,111.1,0,248.1s111.1,248.1,248.1,248.1s248.1-111.1,248.1-248.1S385.1,0,248.1,0z
	"/>
<polygon style="fill:#C7C8C9;" points="247.9,317 208.3,322.3 210.2,335.4 247.8,363.5 286,335.4 287.9,322.3 "/>
<path style="fill:#E4E9ED;" d="M418.5,382.8c-8.5-27.3-81.2-49.3-170.8-49.3s-161.5,22-170,49.3c-2.6,8.5-5.5,22.2-8.3,37.4
	c45.1,46.9,108.5,76,178.7,76s133.6-29.2,178.7-76C424.1,405,421.2,391.2,418.5,382.8z"/>
<g>
	<path style="fill:#172023;" d="M147.4,343.9c-1.7,0.4-3.3,0.8-4.9,1.2l3,14.9l-7.7,1.6l-3-14.4c-1.6,0.5-3.2,0.9-4.8,1.4l2.9,14
		l17.6-3.6L147.4,343.9z"/>
	<path style="fill:#172023;" d="M174.5,338.7c-2.2,0.3-4.4,0.7-6.5,1.1l3.1,15l6.5-1.3L174.5,338.7z"/>
	<path style="fill:#172023;" d="M160.2,341.2c-1.7,0.3-3.4,0.7-5,1l3.1,15.2l5-1L160.2,341.2z"/>
	<path style="fill:#172023;" d="M122.5,351c-2.2,0.8-4.3,1.5-6.3,2.3l2.5,12.2l6.5-1.3L122.5,351z"/>
</g>
<g>
	<path style="fill:#AF9604;" d="M167.9,339.8c-2.6,0.4-5.2,0.9-7.8,1.4l3.1,15.2l7.7-1.6L167.9,339.8z"/>
	<path style="fill:#AF9604;" d="M130.1,348.5c-2.6,0.8-5.1,1.6-7.6,2.5l2.7,13.2l7.7-1.6L130.1,348.5z"/>
	<path style="fill:#AF9604;" d="M142.5,345.1c-2.6,0.7-5.2,1.3-7.6,2l3,14.4l7.7-1.6L142.5,345.1z"/>
	<path style="fill:#AF9604;" d="M155.1,342.2c-2.6,0.5-5.2,1.1-7.7,1.7l3.1,15.1l7.7-1.6L155.1,342.2z"/>
</g>
<g>
	<path style="fill:#172023;" d="M320.4,338.6l-3,14.8l6.5,1.3l3.1-15.1C324.8,339.3,322.7,338.9,320.4,338.6z"/>
	<path style="fill:#172023;" d="M360.1,346.9l-3,14.7l-7.7-1.6l3.1-15.1c-1.6-0.4-3.3-0.8-4.9-1.2l-3.1,15.3l17.6,3.6l2.9-14.3
		C363.3,347.8,361.7,347.3,360.1,346.9z"/>
	<path style="fill:#172023;" d="M334.8,341l-3.1,15.3l5,1l3.1-15.4C338.1,341.7,336.5,341.4,334.8,341z"/>
	<path style="fill:#172023;" d="M372.4,350.7l-2.8,13.5l6.5,1.3l2.6-12.6C376.7,352.1,374.6,351.4,372.4,350.7z"/>
</g>
<g>
	<path style="fill:#AF9604;" d="M327,339.6l-3.1,15.1l7.7,1.6l3.1-15.3C332.2,340.5,329.6,340.1,327,339.6z"/>
	<path style="fill:#AF9604;" d="M364.9,348.3l-2.9,14.3l7.7,1.6l2.8-13.5C370,349.8,367.5,349,364.9,348.3z"/>
	<path style="fill:#AF9604;" d="M352.4,344.9l-3.1,15.1l7.7,1.6l3-14.7C357.6,346.2,355,345.5,352.4,344.9z"/>
	<path style="fill:#AF9604;" d="M339.8,342l-3.1,15.4l7.7,1.6l3.1-15.3C345,343.1,342.4,342.6,339.8,342z"/>
</g>
<path style="fill:#E4E9ED;" d="M247.7,333.4c-89.6,0,0.4,162.8,0.4,162.8S337.3,333.4,247.7,333.4z"/>
<g>
	<polygon style="fill:#172023;" points="248.1,360.5 232.3,368.4 248.1,394 263.8,368.4 	"/>
	<path style="fill:#172023;" d="M267,416c-2-22.6-15.4-38.5-15.4-38.5h-3.5v0.7v-0.7h-3.5c0,0-13.4,15.9-15.4,38.5
		c-1.6,18-4,53.4-5.3,79c8,0.8,16,1.2,24.2,1.2c8.2,0,16.3-0.4,24.2-1.2C271,469.4,268.7,434,267,416z"/>
</g>
<g>
	<path style="fill:#E5BA9C;" d="M287,282.1h-77.8c12.1,36.6,1,53.3,1,53.3l26.9,6.1h22l26.9-6.1C286,335.4,274.9,318.7,287,282.1z"
		/>
	<path style="fill:#E5BA9C;" d="M247.9,317l-37.7,18.4c0,0,16.8,28.1,37.6,28.1s38.2-28.1,38.2-28.1L247.9,317z"/>
</g>
<g>
	<path style="fill:#F9C5A2;" d="M248.1,61.6c-48.7,0-88.3,21.2-88.3,113.6c0,31.3,6.2,55.8,15.5,74.7c20.4,41.6,55.7,56.1,72.8,56.1
		s52.4-14.5,72.8-56.1c9.3-18.9,15.5-43.4,15.5-74.7C336.4,82.8,296.8,61.6,248.1,61.6z"/>
	<path style="fill:#F9C5A2;" d="M161.4,178c-8.4,1.4-14.9,5.1-10.1,32.9s10.7,29.1,19.1,27.7L161.4,178z"/>
	<path style="fill:#F9C5A2;" d="M334.9,178l-9,60.6c8.4,1.4,14.3,0.1,19.1-27.7C349.7,183.1,343.3,179.5,334.9,178z"/>
</g>
<g>
	<circle style="fill:#C98A5F;" cx="274.4" cy="233.2" r="1.9"/>
	<circle style="fill:#C98A5F;" cx="274.4" cy="220.8" r="1.9"/>
	<circle style="fill:#C98A5F;" cx="274.4" cy="208.3" r="1.9"/>
	<circle style="fill:#C98A5F;" cx="299.3" cy="233.2" r="1.9"/>
	<circle style="fill:#C98A5F;" cx="299.3" cy="220.8" r="1.9"/>
	<circle style="fill:#C98A5F;" cx="299.3" cy="208.3" r="1.9"/>
	<circle style="fill:#C98A5F;" cx="286.9" cy="239.5" r="1.9"/>
	<circle style="fill:#C98A5F;" cx="286.9" cy="227.1" r="1.9"/>
	<circle style="fill:#C98A5F;" cx="286.9" cy="214.6" r="1.9"/>
	<circle style="fill:#C98A5F;" cx="286.9" cy="202.1" r="1.9"/>
	<circle style="fill:#C98A5F;" cx="196.9" cy="233.2" r="1.9"/>
	<circle style="fill:#C98A5F;" cx="196.9" cy="220.8" r="1.9"/>
	<circle style="fill:#C98A5F;" cx="196.9" cy="208.3" r="1.9"/>
	<circle style="fill:#C98A5F;" cx="221.8" cy="233.2" r="1.9"/>
	<circle style="fill:#C98A5F;" cx="221.8" cy="220.8" r="1.9"/>
	<circle style="fill:#C98A5F;" cx="221.8" cy="208.3" r="1.9"/>
	<circle style="fill:#C98A5F;" cx="209.3" cy="239.5" r="1.9"/>
	<circle style="fill:#C98A5F;" cx="209.3" cy="227.1" r="1.9"/>
	<circle style="fill:#C98A5F;" cx="209.3" cy="214.6" r="1.9"/>
	<circle style="fill:#C98A5F;" cx="209.3" cy="202.1" r="1.9"/>
</g>
<g>
	<path style="fill:#AF4B19;" d="M248.1,59.1c-58,0-88.3,23.7-88.3,116.1l39.8-33.1c0,0,26.5,0,48.5,0s46.2-35.3,46.2-35.3l42.1,68.4
		C336.4,82.8,306.1,59.1,248.1,59.1z"/>
	<path style="fill:#AF4B19;" d="M180.1,138.6l-14.6,2.2c-4.2,10.9-5.6,24.4-5.6,37.5c0,0,8.8-1.9,8.8,2.6l2.8,27.6l3.9-1.9
		C175,183.6,180.1,138.6,180.1,138.6z"/>
	<path style="fill:#AF4B19;" d="M330.8,140.8l-14.6-0.4c0,0,5.1,43.2,4.9,66.2l3.9,1.9l2.8-27.6c0-4.5,8.8-2.6,8.8-2.6
		C336.5,165.1,335.1,151.7,330.8,140.8z"/>
</g>
<path style="fill:#191919;" d="M346.9,73.8c0,0-38.2-35-99-35s-98.7,35-98.7,35s-10.5,10.5-2,25c0.3,0.5,0.6,1,0.9,1.4
	c4.6,6.8,14.1,15.5,14.1,15.5l-3,3.5l4.3,5.6c0,0-0.2,14.5,13.9,14.5s31.6-5.5,70.6-5.5s56.3,5.5,70.6,5.5s14.2-14.9,14.2-14.9
	l4-5.2l-3-3.5c0,0,9.3-8.5,14-15.3c0.4-0.6,0.8-1.1,1.1-1.7C357.4,84.3,346.9,73.8,346.9,73.8z"/>
<g>
	<path style="fill:#AF9604;" d="M334.2,115.9c-14.5-6.1-46.2-17.1-86.1-17.1s-71.6,11-86.1,17.1l-2.9,3.4l4.3,5.7
		c15.1-8.3,46-16.7,84.7-16.7c38.6,0,69.6,8.3,84.7,16.7l4.3-5.7L334.2,115.9z"/>
	<polygon style="fill:#AF9604;" points="248.1,64.7 214.6,58.3 248.1,79.3 281.6,58.3 	"/>
</g>
<g>
	<path style="fill:#1F2323;" d="M248.1,179.8c-7,0-12.2,1.7-12.2,1.7v4.7c0,0,6.8-1.7,12.2-1.7s12.2,1.7,12.2,1.7v-4.7
		C260.3,181.4,255.1,179.8,248.1,179.8z"/>
	<path style="fill:#1F2323;" d="M158.2,171.6c-0.9-0.1-0.8,6-0.2,6.1l22.2,0.2l2.1,4l8.4-10.2L158.2,171.6z"/>
</g>
<g>
	<path style="fill:#2E3535;" d="M290.6,169.2c-16.6,0-35.5,3.9-35.5,18.6c0,11.1,15.5,28.7,35.9,28.7c11.8,0,24.1-9.3,24.1-25.9
		C315,174,307.1,169.2,290.6,169.2z"/>
	<path style="fill:#2E3535;" d="M205.6,169.2c-16.6,0-24.5,4.8-24.5,21.4s12.3,25.9,24.1,25.9c20.4,0,35.9-17.6,35.9-28.7
		C241.2,173.1,222.2,169.2,205.6,169.2z"/>
</g>
<path style="fill:#1F2323;" d="M338.2,171.6l-32.5,0.1l8.4,10.2l2.1-4l22.2-0.2C339,177.6,339.2,171.5,338.2,171.6z"/>
<g>
	<polygon style="fill:#D4D6D8;" points="287.9,322.3 248.1,363.9 284.7,374.1 305.8,337.8 	"/>
	<polygon style="fill:#D4D6D8;" points="208.3,322.3 190.4,337.8 211.5,374.1 248.1,363.9 	"/>
</g>
<path style="fill:#2A3F49;" d="M311.5,337.4L311.5,337.4L311.5,337.4L311.5,337.4z"/>
<g>
</g>
<g>
</g>
<g>
</g>
<g>
</g>
<g>
</g>
<g>
</g>
<g>
</g>
<g>
</g>
<g>
</g>
<g>
</g>
<g>
</g>
<g>
</g>
<g>
</g>
<g>
</g>
<g>
</g>
</svg>
