<?xml version="1.0" encoding="iso-8859-1"?>
<!-- Generator: Adobe Illustrator 19.0.0, SVG Export Plug-In . SVG Version: 6.00 Build 0)  -->
<svg version="1.1" id="Layer_1" xmlns="http://www.w3.org/2000/svg" xmlns:xlink="http://www.w3.org/1999/xlink" x="0px" y="0px"
	 viewBox="0 0 512 512" style="enable-background:new 0 0 512 512;" xml:space="preserve">
<circle style="fill:#71E2EF;" cx="256" cy="256" r="256"/>
<path style="fill:#38C6D9;" d="M509.787,289.73L333.567,113.511l-69.982,177.947l-0.402-16.063l-79.731-43.098l-17.67,25.428
	l3.448,41.374l65.565,65.565l-39.977,101.654l52.958,45.539c2.731,0.086,5.47,0.145,8.221,0.145
	C385.95,512,493.273,415.172,509.787,289.73z"/>
<rect x="213.333" y="292.219" style="fill:#FCD088;" width="85.333" height="104.296"/>
<rect x="255.431" y="292.219" style="fill:#DDAB62;" width="43.236" height="104.296"/>
<path style="fill:#9AA07F;" d="M370.691,365.671l-50.964-9.044l-9.007-11.666c-1.686-2.184-4.875-3.007-7.618-1.965l-47.101,47.497
	l-46.82-47.48c-2.722-1.053-5.904-0.262-7.613,1.893l-9.295,11.719l-50.964,9.044c-25.948,4.605-44.627,24.819-44.627,48.3v42.408
	C140.405,491.187,195.768,512,256,512s115.595-20.813,159.318-55.622V413.97C415.318,390.491,396.64,370.276,370.691,365.671z"/>
<path style="fill:#787C60;" d="M370.691,365.671l-50.964-9.044l-9.007-11.666c-1.686-2.184-4.875-3.007-7.618-1.965l-47.101,47.497
	l-0.574-0.583v122.082c0.191,0,0.381,0.007,0.574,0.007c60.232,0,115.595-20.813,159.318-55.622V413.97
	C415.318,390.491,396.64,370.276,370.691,365.671z"/>
<path style="fill:#FFEDB5;" d="M347.531,205.44c0.459-4.244,0.698-8.428,0.698-12.509c0-53.974-41.293-97.728-92.229-97.728
	s-92.229,43.754-92.229,97.728c0,4.08,0.24,8.264,0.698,12.509c-8.945,2.326-13.202,16.087-9.506,30.817
	c3.708,14.776,14.014,24.921,23.018,22.661c0.821-0.205,1.586-0.538,2.326-0.927c16.667,33.452,44.351,60.594,75.693,60.594
	s59.027-27.139,75.693-60.594c0.74,0.39,1.505,0.722,2.326,0.927c9.004,2.26,19.309-7.885,23.018-22.661
	C360.734,221.527,356.478,207.763,347.531,205.44z"/>
<path style="fill:#E8CF89;" d="M347.531,205.44c0.459-4.244,0.698-8.428,0.698-12.509c0-53.974-41.293-97.728-92.229-97.728
	c-0.193,0-0.381,0.014-0.574,0.016v223.349c0.191,0.002,0.383,0.016,0.574,0.016c31.342,0,59.027-27.139,75.693-60.592
	c0.74,0.39,1.505,0.721,2.326,0.927c9.004,2.26,19.309-7.885,23.018-22.661C360.734,221.527,356.478,207.763,347.531,205.44z"/>
<g>
	<path style="fill:#494948;" d="M162.047,189.918c0,0,1.724,18.963,6.034,30.456l8.045-0.288c0,0-2.012-15.515,14.941-31.318
		S162.047,189.918,162.047,189.918z"/>
	<path style="fill:#494948;" d="M349.953,189.918c0,0-1.724,18.963-6.034,30.456l-8.045-0.288c0,0,2.012-15.515-14.941-31.318
		S349.953,189.918,349.953,189.918z"/>
</g>
<path style="fill:#536353;" d="M256,390.608l-43.973-51.053c-1.872-2.007-5.26-2.003-7.127,0.007l-16.994,19.299l36.664,52.707
	c3.053,4.472,10.119,4.596,13.357,0.233L256,390.608z"/>
<path style="fill:#404C40;" d="M256,390.608l43.973-51.053c1.872-2.007,5.26-2.003,7.127,0.007l16.994,19.297l-36.664,52.707
	c-3.053,4.472-10.119,4.596-13.357,0.233L256,390.608z"/>
<g>
	<circle style="fill:#536353;" cx="256" cy="410.29" r="4.31"/>
	<circle style="fill:#536353;" cx="256" cy="433.131" r="4.31"/>
	<path style="fill:#536353;" d="M355.987,188.426v-14.439c0-51.293-41.582-92.875-92.875-92.875h-14.222
		c-51.293,0-92.875,41.582-92.875,92.875v14.439c-6.482,0.846-11.492,6.378-11.492,13.091v48.843
		c0,7.299,5.916,13.217,13.217,13.217h7.47c7.299,0,13.217-5.916,13.217-13.217v-36.374h155.152v36.374
		c0,7.299,5.916,13.217,13.217,13.217h7.47c7.299,0,13.217-5.916,13.217-13.217v-48.843
		C367.48,194.803,362.47,189.273,355.987,188.426z"/>
</g>
<path style="fill:#404C40;" d="M355.987,188.426v-14.439c0-51.293-41.582-92.875-92.875-92.875h-7.685v132.875h78.15v36.374
	c0,7.299,5.916,13.217,13.217,13.217h7.47c7.299,0,13.217-5.916,13.217-13.217v-48.843
	C367.48,194.803,362.47,189.273,355.987,188.426z"/>
<path style="fill:#91AA91;" d="M256,222.894c8.542,0,5.435,20.964,13.588,26.4c8.152,5.435,34.066,10.093,55.42,10.871
	s32.322-60.954,12.521-65.612c-19.801-4.658-60.992-10.093-81.53-10.093s-61.73,5.435-81.53,10.093
	c-19.801,4.658-8.832,66.388,12.521,65.612s47.266-5.435,55.42-10.871C250.566,243.86,247.46,222.894,256,222.894z"/>
<path style="fill:#7D917D;" d="M337.53,194.553c-19.801-4.658-60.992-10.093-81.53-10.093c-0.186,0-0.384,0.003-0.574,0.003v38.476
	c0.188-0.022,0.374-0.045,0.574-0.045c8.542,0,5.435,20.964,13.588,26.4c8.152,5.435,34.066,10.093,55.42,10.871
	S357.331,199.213,337.53,194.553z"/>
<path style="fill:#414C41;" d="M325.434,266.207c-0.214,0-0.428-0.005-0.643-0.012c-21.176-0.771-48.866-5.423-58.549-11.881
	c-5.892-3.927-7.539-11.431-8.994-18.051c-0.322-1.462-0.765-3.484-1.248-5.13c-0.481,1.645-0.926,3.668-1.248,5.13
	c-1.455,6.62-3.101,14.122-8.994,18.051c-9.683,6.456-37.373,11.109-58.549,11.881c-0.214,0.007-0.431,0.012-0.643,0.012
	c-15.451,0.002-25.241-20.408-27.826-39.624c-2.777-20.644,2.72-35.166,14.345-37.902c19.737-4.644,61.123-10.254,82.913-10.254
	s63.174,5.61,82.913,10.254c11.624,2.736,17.124,17.26,14.345,37.902C350.673,245.8,340.883,266.207,325.434,266.207z
	 M256.002,216.86c9.342,0,11.474,9.719,13.034,16.817c0.821,3.731,2.057,9.369,3.901,10.597c6.727,4.486,31.163,9.092,52.293,9.861
	c0.053,0.003,0.109,0.003,0.165,0.003c6.403,0,13.803-13.529,15.906-29.165c1.905-14.158-1.122-23.597-5.149-24.545
	c-19.001-4.472-59.718-9.935-80.148-9.935c-20.43,0-61.147,5.463-80.148,9.935c-4.027,0.948-7.056,10.387-5.149,24.545
	c2.103,15.636,9.504,29.165,15.906,29.165c0.055,0,0.109,0,0.165-0.003c21.13-0.767,45.566-5.375,52.293-9.861
	c1.843-1.229,3.081-6.866,3.901-10.597C244.526,226.58,246.66,216.86,256.002,216.86z"/>
<path style="fill:#2B332B;" d="M338.913,188.68c-19.737-4.644-61.123-10.254-82.913-10.254c-0.186,0-0.384,0.003-0.574,0.003v12.067
	c0.19,0,0.388-0.005,0.574-0.005c20.432,0,61.147,5.463,80.148,9.935c4.027,0.948,7.056,10.387,5.149,24.545
	c-2.103,15.636-9.504,29.165-15.906,29.165c-0.055,0-0.11,0-0.165-0.003c-21.13-0.767-45.566-5.375-52.293-9.861
	c-1.843-1.229-3.081-6.866-3.901-10.597c-1.558-7.097-3.693-16.817-13.034-16.817c-0.202,0-0.379,0.029-0.574,0.038v16.425
	c0.181-0.75,0.372-1.503,0.574-2.189c0.481,1.645,0.926,3.668,1.248,5.13c1.455,6.62,3.101,14.122,8.994,18.051
	c9.683,6.456,37.373,11.109,58.549,11.881c0.215,0.007,0.429,0.012,0.643,0.012c15.45,0,25.241-20.408,27.826-39.624
	C356.037,205.939,350.537,191.416,338.913,188.68z"/>
<path style="fill:#536353;" d="M240.845,303.407h-58.937c-12.338,0-22.375-10.037-22.375-22.375v-23.309
	c0-2.381,1.929-4.31,4.31-4.31s4.31,1.929,4.31,4.31v23.309c0,7.585,6.17,13.755,13.755,13.755h58.937c2.381,0,4.31,1.929,4.31,4.31
	S243.224,303.407,240.845,303.407z"/>
<g>
</g>
<g>
</g>
<g>
</g>
<g>
</g>
<g>
</g>
<g>
</g>
<g>
</g>
<g>
</g>
<g>
</g>
<g>
</g>
<g>
</g>
<g>
</g>
<g>
</g>
<g>
</g>
<g>
</g>
</svg>
