<?xml version="1.0" encoding="iso-8859-1"?>
<!-- Generator: Adobe Illustrator 19.0.0, SVG Export Plug-In . SVG Version: 6.00 Build 0)  -->
<svg version="1.1" id="Layer_1" xmlns="http://www.w3.org/2000/svg" xmlns:xlink="http://www.w3.org/1999/xlink" x="0px" y="0px"
	 viewBox="0 0 512 512" style="enable-background:new 0 0 512 512;" xml:space="preserve">
<path style="fill:#06B559;" d="M238.524,172.626v14.814h-5.551h-64.977v-14.814c0-7.075,5.732-12.807,12.807-12.807h44.914
	C232.792,159.819,238.524,165.551,238.524,172.626z"/>
<path style="fill:#0B9B53;" d="M443.348,135.064l10.412,25.239l-162.304,66.9l-2.261,0.302c-2.407-8.683-6.688-16.798-12.601-23.715
	L443.348,135.064z"/>
<path style="fill:#06B559;" d="M295.084,242.9v11.694H105.885V242.9c0-8.236,1.633-16.302,4.728-23.775
	c3.096-7.462,7.643-14.318,13.46-20.147c11.646-11.646,27.452-18.188,43.923-18.188h64.977c8.236,0,16.302,1.633,23.775,4.728
	c7.462,3.084,14.318,7.631,20.147,13.46c1.161,1.161,2.274,2.358,3.326,3.604c5.914,6.917,10.195,15.032,12.601,23.715
	C294.31,231.653,295.084,237.24,295.084,242.9z"/>
<path style="fill:#0B9B53;" d="M159.589,219.124c3.096-7.462,7.643-14.318,13.46-20.147c11.646-11.646,27.452-18.188,43.923-18.188
	h-48.975c-16.471,0-32.277,6.542-43.923,18.188c-5.817,5.829-10.364,12.686-13.46,20.147c-3.096,7.474-4.728,15.54-4.728,23.775
	v11.694h48.975V242.9C154.86,234.664,156.493,226.598,159.589,219.124z"/>
<path style="fill:#06B559;" d="M501.047,109.785l10.407,25.259c1.504,3.651-0.236,7.829-3.887,9.334l-48.101,19.815
	c-3.652,1.504-7.832-0.238-9.335-3.89l0,0l-10.412-25.239l-0.004-0.008c-1.501-3.65,0.238-7.826,3.887-9.329l48.109-19.828
	C495.363,104.394,499.543,106.134,501.047,109.785z"/>
<path style="fill:#0B9B53;" d="M507.568,144.378l-48.095,19.821c-3.652,1.5-7.836-0.242-9.336-3.894l-4.233-10.279
	c1.5,3.652,5.684,5.394,9.336,3.894l48.095-19.821c3.616-1.487,5.357-5.599,3.93-9.227l4.196,10.17
	C512.961,138.694,511.22,142.879,507.568,144.378z"/>
<g>
	<path style="fill:#999999;" d="M147.014,373.18c0-14.137-11.464-25.601-25.601-25.601c-14.149,0-25.614,11.464-25.614,25.601
		c0,14.137,11.464,25.601,25.614,25.601C135.55,398.782,147.014,387.317,147.014,373.18z"/>
	<path style="fill:#999999;" d="M236.541,377.631c0-11.682-9.469-21.151-21.151-21.151c-11.67,0-21.139,9.469-21.139,21.151
		s9.469,21.151,21.139,21.151C227.072,398.782,236.541,389.313,236.541,377.631z"/>
	<path style="fill:#999999;" d="M343.058,371.548c0-15.044-12.202-27.246-27.246-27.246c-15.032,0-27.234,12.202-27.234,27.246
		s12.202,27.234,27.234,27.234C330.856,398.782,343.058,386.592,343.058,371.548z"/>
	<path style="fill:#999999;" d="M405.895,356.83c5.103-3.471,8.453-9.324,8.453-15.963c0-10.654-8.647-19.301-19.301-19.301
		c-10.666,0-19.313,8.647-19.313,19.301c0,10.666,8.647,19.301,19.313,19.301C399.062,360.168,402.811,358.935,405.895,356.83z"/>
	<path style="fill:#999999;" d="M26.976,368.065c2.515,0.907,5.224,1.403,8.054,1.403c13.024,0,23.594-10.557,23.594-23.594
		c0-13.024-10.57-23.594-23.594-23.594c-13.037,0-23.594,10.569-23.594,23.594c0,10.183,6.446,18.853,15.479,22.167
		C26.94,368.041,26.952,368.053,26.976,368.065z"/>
</g>
<path style="fill:#088443;" d="M405.895,356.83l-30.826,29.568c-8.272,7.945-19.301,12.383-30.765,12.383h-28.492
	c15.044,0,27.246-12.19,27.246-27.234c0-15.044-12.202-27.246-27.246-27.246c-15.032,0-27.234,12.202-27.234,27.246
	c0,15.044,12.202,27.234,27.234,27.234H215.39c11.682,0,21.151-9.469,21.151-21.151s-9.469-21.151-21.151-21.151
	c-11.67,0-21.139,9.469-21.139,21.151s9.469,21.151,21.139,21.151h-93.977c14.137,0,25.601-11.464,25.601-25.601
	c0-14.137-11.464-25.601-25.601-25.601c-14.149,0-25.614,11.464-25.614,25.601c0,14.137,11.464,25.601,25.614,25.601h-18.95
	c-6.76,0-13.448-1.318-19.712-3.858l-55.774-26.859c2.515,0.907,5.224,1.403,8.054,1.403c13.024,0,23.594-10.557,23.594-23.594
	c0-13.024-10.57-23.594-23.594-23.594l360.017-0.714c-10.666,0-19.313,8.647-19.313,19.301c0,10.666,8.647,19.301,19.313,19.301
	C399.062,360.168,402.811,358.935,405.895,356.83z"/>
<path style="fill:#06B559;" d="M363.351,289.846H53.195H37.619l15.982-30.371c2.167-4.118,6.436-6.695,11.09-6.695h41.195h189.199
	h21.453L363.351,289.846z"/>
<g>
	<path style="fill:#0B9B53;" d="M105.885,252.78H64.691c-4.652,0-8.922,2.578-11.09,6.695l-15.982,30.371h15.576h47.91
		l19.506-37.066H105.885z"/>
	<path style="fill:#0B9B53;" d="M419.263,312.362l-19.851-13.447H53.195c-11.768,0-23.22,2.35-34.039,6.983l-12.003,5.149L0,294.377
		l12.009-5.152c13.095-5.608,26.95-8.45,41.186-8.45h349c1.814,0,3.586,0.544,5.086,1.561l22.155,15.008L419.263,312.362z"/>
</g>
<g>
	<path style="fill:#4D4D4D;" d="M121.413,406.642c-18.458,0-33.474-15.011-33.474-33.462s15.016-33.462,33.474-33.462
		c18.451,0,33.462,15.011,33.462,33.462S139.863,406.642,121.413,406.642z M121.413,355.44c-9.79,0-17.753,7.959-17.753,17.741
		s7.963,17.741,17.753,17.741c9.782,0,17.741-7.959,17.741-17.741C139.154,363.398,131.195,355.44,121.413,355.44z"/>
	<path style="fill:#4D4D4D;" d="M215.39,406.642c-15.991,0-29-13.015-29-29.012s13.009-29.012,29-29.012
		c15.997,0,29.012,13.015,29.012,29.012S231.387,406.642,215.39,406.642z M215.39,364.34c-7.321,0-13.278,5.962-13.278,13.29
		s5.957,13.29,13.278,13.29c7.329,0,13.291-5.962,13.291-13.29S222.718,364.34,215.39,364.34z"/>
	<path style="fill:#4D4D4D;" d="M315.812,406.642c-19.35,0-35.095-15.744-35.095-35.095c0-19.358,15.744-35.107,35.095-35.107
		c19.358,0,35.107,15.749,35.107,35.107C350.919,390.899,335.17,406.642,315.812,406.642z M315.812,352.162
		c-10.682,0-19.373,8.696-19.373,19.385c0,10.682,8.691,19.373,19.373,19.373c10.689,0,19.386-8.691,19.386-19.373
		C335.198,360.859,326.501,352.162,315.812,352.162z"/>
	<path style="fill:#4D4D4D;" d="M395.047,368.029c-14.984,0-27.174-12.185-27.174-27.161s12.19-27.161,27.174-27.161
		c14.976,0,27.161,12.185,27.161,27.161c0,9.001-4.447,17.399-11.894,22.463C405.805,366.403,400.527,368.029,395.047,368.029z
		 M395.047,329.427c-6.315,0-11.452,5.132-11.452,11.44c0,6.308,5.138,11.44,11.452,11.44c2.309,0,4.528-0.681,6.417-1.97
		c0.004-0.002,0.007-0.005,0.011-0.007c3.138-2.134,5.013-5.672,5.013-9.463C406.487,334.559,401.355,329.427,395.047,329.427z"/>
	<path style="fill:#4D4D4D;" d="M35.031,377.328c-3.675,0-7.281-0.629-10.721-1.87c-0.069-0.024-0.137-0.051-0.204-0.076
		c-12.284-4.556-20.53-16.4-20.53-29.508c0-17.344,14.11-31.455,31.455-31.455s31.455,14.11,31.455,31.455
		C66.485,363.218,52.375,377.328,35.031,377.328z M29.787,360.722c1.681,0.588,3.444,0.885,5.242,0.885
		c8.676,0,15.733-7.058,15.733-15.733s-7.058-15.733-15.733-15.733s-15.733,7.058-15.733,15.733c0,6.556,4.12,12.479,10.26,14.762
		C29.635,360.664,29.711,360.692,29.787,360.722z"/>
	<path style="fill:#4D4D4D;" d="M344.304,406.642H102.463c-7.782,0-15.408-1.491-22.665-4.435c-0.155-0.063-0.307-0.131-0.457-0.202
		l-55.459-26.707c-12.161-4.616-20.306-16.395-20.306-29.425c0-17.344,14.11-31.455,31.455-31.455l360.002-0.714
		c0.005,0,0.01,0,0.016,0c14.976,0,27.161,12.185,27.161,27.161c0,8.763-4.213,16.954-11.308,22.053l-30.39,29.151
		C370.73,401.467,357.87,406.642,344.304,406.642z M85.926,387.729c5.305,2.119,10.867,3.193,16.536,3.193h241.841
		c9.486,0,18.477-3.62,25.32-10.192l30.829-29.573c0.317-0.304,0.658-0.581,1.022-0.827c3.138-2.134,5.013-5.672,5.013-9.463
		c0-6.304-5.126-11.434-11.429-11.44l-360.013,0.714c-8.691,0-15.748,7.058-15.748,15.733c0,6.552,4.114,12.472,10.249,14.759
		c0.313,0.109,0.618,0.238,0.913,0.385L85.926,387.729z"/>
</g>
<g>
</g>
<g>
</g>
<g>
</g>
<g>
</g>
<g>
</g>
<g>
</g>
<g>
</g>
<g>
</g>
<g>
</g>
<g>
</g>
<g>
</g>
<g>
</g>
<g>
</g>
<g>
</g>
<g>
</g>
</svg>
