<?xml version="1.0" encoding="iso-8859-1"?>
<!-- Generator: Adobe Illustrator 18.0.0, SVG Export Plug-In . SVG Version: 6.00 Build 0)  -->
<!DOCTYPE svg PUBLIC "-//W3C//DTD SVG 1.1//EN" "http://www.w3.org/Graphics/SVG/1.1/DTD/svg11.dtd">
<svg xmlns="http://www.w3.org/2000/svg" xmlns:xlink="http://www.w3.org/1999/xlink" version="1.1" id="Capa_1" x="0px" y="0px" viewBox="0 0 396.162 396.162" style="enable-background:new 0 0 396.162 396.162;" xml:space="preserve" width="512px" height="512px">
<g>
	<path d="M189.844,174.873c3.399-8.158,2.502-17.418-2.4-24.772s-13.105-11.744-21.943-11.744h-37.013   c-23.954,0-43.442,19.489-43.442,43.443c0,18.125,14.745,32.871,32.87,32.871h12.231   C156.338,214.671,179.771,199.05,189.844,174.873z M130.146,201.671h-12.231c-10.956,0-19.87-8.914-19.87-19.871   c0-16.787,13.656-30.443,30.442-30.443H165.5c4.548,0,8.604,2.17,11.127,5.955c2.522,3.784,2.966,8.363,1.217,12.561   C169.795,189.19,151.073,201.671,130.146,201.671z" fill="#7a7a7a"/>
	<path d="M230.661,138.357c-8.837,0-17.04,4.39-21.942,11.743c-4.902,7.354-5.8,16.614-2.401,24.773   c10.074,24.177,33.508,39.798,59.698,39.798h12.231c18.125,0,32.87-14.746,32.87-32.871c0-23.955-19.488-43.443-43.443-43.443   H230.661z M298.117,181.801c0,10.957-8.914,19.871-19.87,19.871h-12.231c-20.926,0-39.648-12.481-47.698-31.798   c-1.749-4.199-1.305-8.777,1.218-12.562c2.523-3.784,6.578-5.954,11.126-5.954h37.013   C284.46,151.357,298.117,165.014,298.117,181.801z" fill="#7a7a7a"/>
	<path d="M198.081,210.237c-26.586,0-48.216,21.629-48.216,48.216v22.086c0,18.654,15.177,33.831,33.831,33.831h28.77   c18.654,0,33.831-15.177,33.831-33.831v-22.086C246.297,231.866,224.667,210.237,198.081,210.237z M233.297,280.539   c0,11.486-9.345,20.831-20.831,20.831h-28.77c-11.486,0-20.831-9.345-20.831-20.831v-22.086c0-19.418,15.798-35.216,35.216-35.216   s35.216,15.798,35.216,35.216V280.539z" fill="#7a7a7a"/>
	<path d="M297.035,43.415C271.645,15.824,235.577,0,198.081,0c-37.497,0-73.564,15.824-98.956,43.416   c-25.391,27.591-38.17,64.847-35.062,102.214c0.004,0.049,0.009,0.099,0.014,0.148l15.817,148.688   c1.482,17.608,9.155,34.208,21.609,46.754c13.11,13.205,20.33,30.327,20.33,48.211v0.231c0,3.59,2.91,6.5,6.5,6.5h139.493   c3.59,0,6.5-2.91,6.5-6.5v-0.398c0-17.901,7.213-35.015,20.309-48.189c12.477-12.55,20.163-29.165,21.647-46.793l15.802-148.503   c0.005-0.049,0.01-0.099,0.014-0.149C335.207,108.262,322.427,71.006,297.035,43.415z M134.587,383.162   c-0.274-3.467-0.781-6.896-1.502-10.274h129.952c-0.711,3.378-1.211,6.807-1.477,10.274H134.587z M319.149,144.479l-15.802,148.5   c-0.005,0.05-0.01,0.1-0.014,0.149c-1.216,14.61-7.578,28.382-17.917,38.781c-8.151,8.199-14.366,17.71-18.446,27.979H129.116   c-4.084-10.203-10.278-19.66-18.387-27.827c-10.32-10.396-16.672-24.156-17.886-38.748c-0.004-0.05-0.009-0.1-0.014-0.149   L77.013,144.48c-2.829-34.227,8.42-66.988,31.679-92.261C131.965,26.928,163.711,13,198.081,13   c34.369,0,66.115,13.928,89.389,39.218C310.727,77.49,321.976,110.254,319.149,144.479z" fill="#7a7a7a"/>
</g>
<g>
</g>
<g>
</g>
<g>
</g>
<g>
</g>
<g>
</g>
<g>
</g>
<g>
</g>
<g>
</g>
<g>
</g>
<g>
</g>
<g>
</g>
<g>
</g>
<g>
</g>
<g>
</g>
<g>
</g>
</svg>
