<?xml version="1.0" encoding="iso-8859-1"?>
<!-- Generator: Adobe Illustrator 19.0.0, SVG Export Plug-In . SVG Version: 6.00 Build 0)  -->
<svg version="1.1" id="Layer_1" xmlns="http://www.w3.org/2000/svg" xmlns:xlink="http://www.w3.org/1999/xlink" x="0px" y="0px"
	 viewBox="0 0 512.003 512.003" style="enable-background:new 0 0 512.003 512.003;" xml:space="preserve">
<g>
	<g>
		<path style="fill:#494949;" d="M465.455,358.403c0,30.85-25.004,55.855-55.855,55.855s-55.855-25.004-55.855-55.855
			s25.004-55.855,55.855-55.855S465.455,327.552,465.455,358.403"/>
		<path style="fill:#494949;" d="M139.637,358.403c0,30.85-25.004,55.855-55.855,55.855s-55.855-25.004-55.855-55.855
			s25.004-55.855,55.855-55.855S139.637,327.552,139.637,358.403"/>
	</g>
	<path style="fill:#378CD5;" d="M506.312,193.89l-80.896-88.986c-4.143-4.552-10.017-7.159-16.179-7.159h-85.746
		c-8.993,0-16.291,7.298-16.291,16.291v151.273H0v79.9c0,7.289,5.902,13.191,13.191,13.191h14.736
		c0-30.841,25.004-55.855,55.855-55.855s55.855,25.014,55.855,55.855H307.2h46.545c0-30.841,25.004-55.855,55.855-55.855
		s55.855,25.014,55.855,55.855h33.354c7.289,0,13.191-5.902,13.191-13.191V208.607C512,203.162,509.971,197.921,506.312,193.89"/>
	<g>
		<path style="fill:#E0E0E0;" d="M102.401,358.403c0,10.287-8.332,18.618-18.618,18.618s-18.618-8.332-18.618-18.618
			s8.332-18.618,18.618-18.618S102.401,348.116,102.401,358.403"/>
		<path style="fill:#E0E0E0;" d="M428.219,358.403c0,10.287-8.332,18.618-18.618,18.618s-18.618-8.332-18.618-18.618
			s8.332-18.618,18.618-18.618S428.219,348.116,428.219,358.403"/>
		<path style="fill:#E0E0E0;" d="M425.419,104.909c-4.143-4.561-10.026-7.159-16.188-7.159h-48.789
			c-3.696,0-6.693,2.998-6.693,6.693v98.323c0,3.696,2.998,6.693,6.693,6.693h151.561v-0.856c0-5.437-2.029-10.687-5.688-14.708
			L425.419,104.909z"/>
	</g>
	<path style="fill:#75B93F;" d="M307.201,265.312H0.001v-70.684c0-7.233,5.865-13.098,13.098-13.098h294.102V265.312z"/>
	<path style="fill:#83BEEB;" d="M512.001,246.694h-55.855c-5.148,0-9.309,4.161-9.309,9.309s4.161,9.309,9.309,9.309h55.855V246.694
		z"/>
</g>
<g>
</g>
<g>
</g>
<g>
</g>
<g>
</g>
<g>
</g>
<g>
</g>
<g>
</g>
<g>
</g>
<g>
</g>
<g>
</g>
<g>
</g>
<g>
</g>
<g>
</g>
<g>
</g>
<g>
</g>
</svg>
