<?xml version="1.0" encoding="iso-8859-1"?>
<!-- Generator: Adobe Illustrator 19.0.0, SVG Export Plug-In . SVG Version: 6.00 Build 0)  -->
<svg version="1.1" id="Layer_1" xmlns="http://www.w3.org/2000/svg" xmlns:xlink="http://www.w3.org/1999/xlink" x="0px" y="0px"
	 viewBox="0 0 512.004 512.004" style="enable-background:new 0 0 512.004 512.004;" xml:space="preserve">
<g>
	
		<rect x="329.326" y="55.134" transform="matrix(-0.7071 0.7071 -0.7071 -0.7071 756.4563 -171.7144)" style="fill:#424242;" width="168.93" height="31.351"/>
	<polygon style="fill:#424242;" points="380.088,289.175 328.849,340.414 306.681,318.245 340.981,283.945 301.534,214.958 
		328.75,199.395 	"/>
</g>
<polygon style="fill:#8F8F8F;" points="366.763,378.136 291.167,245.931 244.932,292.165 320.529,424.371 "/>
<polygon style="fill:#C2C2C2;" points="328.965,312.033 291.167,245.931 244.932,292.165 282.73,358.267 "/>
<polygon style="fill:#424242;" points="203.588,258.852 26.84,435.601 145.7,512.004 255.696,310.96 417.263,149.393 
	365.155,97.285 "/>
<rect x="352.177" y="162.207" transform="matrix(-0.7071 -0.7071 0.7071 -0.7071 580.3359 620.1748)" style="fill:#8F8F8F;" width="132.866" height="55.377"/>
<polygon style="fill:#424242;" points="266.007,91.676 275.196,100.865 121.95,254.111 112.761,244.922 90.593,267.09 
	131.14,307.638 153.309,285.468 144.12,276.279 170.974,249.424 203.08,281.529 225.249,259.36 193.144,227.255 248.34,172.059 
	280.445,204.164 302.613,181.995 270.509,149.891 297.364,123.034 306.553,132.224 328.723,110.054 288.175,69.508 "/>
<rect x="196.18" y="167.271" transform="matrix(-0.7071 0.7071 -0.7071 -0.7071 674.2586 128.9503)" style="fill:#048F46;" width="228.486" height="73.696"/>
<rect x="183.154" y="172.681" transform="matrix(-0.7071 0.7071 -0.7071 -0.7071 642.8206 115.9446)" style="fill:#3DDB86;" width="228.486" height="36.848"/>
<polygon style="fill:#707070;" points="26.84,435.601 58.559,455.99 229.642,284.906 203.588,258.852 "/>
<g>
</g>
<g>
</g>
<g>
</g>
<g>
</g>
<g>
</g>
<g>
</g>
<g>
</g>
<g>
</g>
<g>
</g>
<g>
</g>
<g>
</g>
<g>
</g>
<g>
</g>
<g>
</g>
<g>
</g>
</svg>
