{
  "accessors": {
    "accessor_index_0": {
      "bufferView": "bufferView_1",
      "byteOffset": 0,
      "byteStride": 0,
      "componentType": 5123,
      "count": 12843,
      "type": "SCALAR",
      "min": [
        0
      ],
      "max": [
        12938
      ]
    },
    "accessor_index_1": {
      "bufferView": "bufferView_1",
      "byteOffset": 25686,
      "byteStride": 0,
      "componentType": 5123,
      "count": 438,
      "type": "SCALAR",
      "min": [
        11703
      ],
      "max": [
        13280
      ]
    },
    "accessor_index_2": {
      "bufferView": "bufferView_1",
      "byteOffset": 26562,
      "byteStride": 0,
      "componentType": 5123,
      "count": 228,
      "type": "SCALAR",
      "min": [
        13281
      ],
      "max": [
        13508
      ]
    },
    "accessor_index_3": {
      "bufferView": "bufferView_1",
      "byteOffset": 27018,
      "byteStride": 0,
      "componentType": 5123,
      "count": 2295,
      "type": "SCALAR",
      "min": [
        13509
      ],
      "max": [
        15803
      ]
    },
    "accessor_position": {
      "bufferView": "bufferView_0",
      "byteOffset": 0,
      "byteStride": 0,
      "componentType": 5126,
      "count": 6049,
      "min": [
        -7.133580207824707,
        -12.536370277404785,
        -1.9228099584579468
      ],
      "max": [
        7.133580207824707,
        8.872159957885742,
        3.070080041885376
      ],
      "type": "VEC3"
    },
    "accessor_normal": {
      "bufferView": "bufferView_0",
      "byteOffset": 72588,
      "byteStride": 0,
      "componentType": 5126,
      "count": 6049,
      "type": "VEC3",
      "min": [
        -1,
        -1,
        -1
      ],
      "max": [
        1,
        1,
        1
      ]
    },
    "accessor_uv": {
      "bufferView": "bufferView_0",
      "byteOffset": 145176,
      "byteStride": 0,
      "componentType": 5126,
      "count": 6049,
      "type": "VEC2",
      "min": [
        0.004809999838471413,
        1.0055700540542603
      ],
      "max": [
        0.996999979019165,
        1.9962300062179565
      ]
    }
  },
  "asset": {
    "generator": "OBJ2GLTF",
    "premultipliedAlpha": true,
    "profile": {
      "api": "WebGL",
      "version": "1.0"
    },
    "version": "1.0"
  },
  "buffers": {
    "buffer_0": {
      "type": "arraybuffer",
      "byteLength": 225176,
      "uri": "data:application/octet-stream;base64,"
    }
  },
  "bufferViews": {
    "bufferView_0": {
      "buffer": "buffer_0",
      "byteLength": 193568,
      "byteOffset": 0,
      "target": 34962
    },
    "bufferView_1": {
      "buffer": "buffer_0",
      "byteLength": 31608,
      "byteOffset": 193568,
      "target": 34963
    }
  },
  "images": {
    "Su-27_Flanker_P01": {
      "uri": "Su-27_Flanker_P01.png"
    },
    "Glass_Cockpit": {
      "uri": "Glass_Cockpit.png"
    },
    "Eject_Seat": {
      "uri": "Eject_Seat.png"
    },
    "Pilot_usa": {
      "uri": "Pilot_usa.png"
    }
  },
  "materials": {
    "material_plane": {
      "name": "plane",
      "extensions": {},
      "values": {
        "ambient": [
          0.117647,
          0.117647,
          0.117647,
          1
        ],
        "diffuse": "texture_Su-27_Flanker_P01",
        "emission": [
          0,
          0,
          0,
          1
        ],
        "specular": [
          0.752941,
          0.752941,
          0.752941,
          1
        ],
        "shininess": 8,
        "transparency": 1
      },
      "technique": "technique0"
    },
    "material_glass": {
      "name": "glass",
      "extensions": {},
      "values": {
        "ambient": [
          0.117647,
          0.117647,
          0.117647,
          1
        ],
        "diffuse": "texture_Glass_Cockpit",
        "emission": [
          0,
          0,
          0,
          1
        ],
        "specular": [
          0.752941,
          0.752941,
          0.752941,
          1
        ],
        "shininess": 8,
        "transparency": 1
      },
      "technique": "technique1"
    },
    "material_seat": {
      "name": "seat",
      "extensions": {},
      "values": {
        "ambient": [
          0.117647,
          0.117647,
          0.117647,
          1
        ],
        "diffuse": "texture_Eject_Seat",
        "emission": [
          0,
          0,
          0,
          1
        ],
        "specular": [
          0.752941,
          0.752941,
          0.752941,
          1
        ],
        "shininess": 8,
        "transparency": 1
      },
      "technique": "technique0"
    },
    "material_pilot": {
      "name": "pilot",
      "extensions": {},
      "values": {
        "ambient": [
          0.117647,
          0.117647,
          0.117647,
          1
        ],
        "diffuse": "texture_Pilot_usa",
        "emission": [
          0,
          0,
          0,
          1
        ],
        "specular": [
          0.752941,
          0.752941,
          0.752941,
          1
        ],
        "shininess": 8,
        "transparency": 1
      },
      "technique": "technique0"
    }
  },
  "meshes": {
    "mesh_model": {
      "name": "model",
      "primitives": [
        {
          "attributes": {
            "POSITION": "accessor_position",
            "NORMAL": "accessor_normal",
            "TEXCOORD_0": "accessor_uv"
          },
          "indices": "accessor_index_0",
          "material": "material_plane",
          "mode": 4
        },
        {
          "attributes": {
            "POSITION": "accessor_position",
            "NORMAL": "accessor_normal",
            "TEXCOORD_0": "accessor_uv"
          },
          "indices": "accessor_index_1",
          "material": "material_glass",
          "mode": 4
        },
        {
          "attributes": {
            "POSITION": "accessor_position",
            "NORMAL": "accessor_normal",
            "TEXCOORD_0": "accessor_uv"
          },
          "indices": "accessor_index_2",
          "material": "material_seat",
          "mode": 4
        },
        {
          "attributes": {
            "POSITION": "accessor_position",
            "NORMAL": "accessor_normal",
            "TEXCOORD_0": "accessor_uv"
          },
          "indices": "accessor_index_3",
          "material": "material_pilot",
          "mode": 4
        }
      ]
    }
  },
  "nodes": {
    "rootNode": {
      "children": [],
      "meshes": [
        "mesh_model"
      ],
      "matrix": [
        1,
        0,
        0,
        0,
        0,
        1,
        0,
        0,
        0,
        0,
        1,
        0,
        0,
        0,
        0,
        1
      ]
    }
  },
  "samplers": {
    "sampler_0": {
      "magFilter": 9729,
      "minFilter": 9986,
      "wrapS": 10497,
      "wrapT": 10497
    }
  },
  "scene": "scene_model",
  "scenes": {
    "scene_model": {
      "nodes": [
        "rootNode"
      ]
    }
  },
  "textures": {
    "texture_Su-27_Flanker_P01": {
      "format": 6407,
      "internalFormat": 6407,
      "sampler": "sampler_0",
      "source": "Su-27_Flanker_P01",
      "target": 3553,
      "type": 5121
    },
    "texture_Glass_Cockpit": {
      "format": 6407,
      "internalFormat": 6407,
      "sampler": "sampler_0",
      "source": "Glass_Cockpit",
      "target": 3553,
      "type": 5121
    },
    "texture_Eject_Seat": {
      "format": 6407,
      "internalFormat": 6407,
      "sampler": "sampler_0",
      "source": "Eject_Seat",
      "target": 3553,
      "type": 5121
    },
    "texture_Pilot_usa": {
      "format": 6407,
      "internalFormat": 6407,
      "sampler": "sampler_0",
      "source": "Pilot_usa",
      "target": 3553,
      "type": 5121
    }
  },
  "extensionsUsed": [],
  "animations": {},
  "cameras": {},
  "techniques": {
    "technique0": {
      "attributes": {
        "a_position": "position",
        "a_normal": "normal",
        "a_texcoord_0": "texcoord_0"
      },
      "parameters": {
        "modelViewMatrix": {
          "semantic": "MODELVIEW",
          "type": 35676
        },
        "projectionMatrix": {
          "semantic": "PROJECTION",
          "type": 35676
        },
        "normalMatrix": {
          "semantic": "MODELVIEWINVERSETRANSPOSE",
          "type": 35675
        },
        "ambient": {
          "type": 35666
        },
        "diffuse": {
          "type": 35678
        },
        "emission": {
          "type": 35666
        },
        "specular": {
          "type": 35666
        },
        "shininess": {
          "type": 5126
        },
        "transparency": {
          "type": 5126
        },
        "position": {
          "semantic": "POSITION",
          "type": 35665
        },
        "normal": {
          "semantic": "NORMAL",
          "type": 35665
        },
        "texcoord_0": {
          "semantic": "TEXCOORD_0",
          "type": 35664
        }
      },
      "program": "program0",
      "states": {
        "enable": [
          2884,
          2929
        ]
      },
      "uniforms": {
        "u_modelViewMatrix": "modelViewMatrix",
        "u_projectionMatrix": "projectionMatrix",
        "u_normalMatrix": "normalMatrix",
        "u_ambient": "ambient",
        "u_diffuse": "diffuse",
        "u_emission": "emission",
        "u_specular": "specular",
        "u_shininess": "shininess",
        "u_transparency": "transparency"
      }
    },
    "technique1": {
      "attributes": {
        "a_position": "position",
        "a_normal": "normal",
        "a_texcoord_0": "texcoord_0"
      },
      "parameters": {
        "modelViewMatrix": {
          "semantic": "MODELVIEW",
          "type": 35676
        },
        "projectionMatrix": {
          "semantic": "PROJECTION",
          "type": 35676
        },
        "normalMatrix": {
          "semantic": "MODELVIEWINVERSETRANSPOSE",
          "type": 35675
        },
        "ambient": {
          "type": 35666
        },
        "diffuse": {
          "type": 35678
        },
        "emission": {
          "type": 35666
        },
        "specular": {
          "type": 35666
        },
        "shininess": {
          "type": 5126
        },
        "transparency": {
          "type": 5126
        },
        "position": {
          "semantic": "POSITION",
          "type": 35665
        },
        "normal": {
          "semantic": "NORMAL",
          "type": 35665
        },
        "texcoord_0": {
          "semantic": "TEXCOORD_0",
          "type": 35664
        }
      },
      "program": "program1",
      "states": {
        "enable": [
          2929,
          3042
        ],
        "depthMask": false,
        "functions": {
          "blendEquationSeparate": [
            32774,
            32774
          ],
          "blendFuncSeparate": [
            1,
            771,
            1,
            771
          ]
        }
      },
      "uniforms": {
        "u_modelViewMatrix": "modelViewMatrix",
        "u_projectionMatrix": "projectionMatrix",
        "u_normalMatrix": "normalMatrix",
        "u_ambient": "ambient",
        "u_diffuse": "diffuse",
        "u_emission": "emission",
        "u_specular": "specular",
        "u_shininess": "shininess",
        "u_transparency": "transparency"
      }
    }
  },
  "programs": {
    "program0": {
      "attributes": [
        "a_position",
        "a_normal",
        "a_texcoord_0"
      ],
      "fragmentShader": "fragmentShader0",
      "vertexShader": "vertexShader0"
    },
    "program1": {
      "attributes": [
        "a_position",
        "a_normal",
        "a_texcoord_0"
      ],
      "fragmentShader": "fragmentShader1",
      "vertexShader": "vertexShader1"
    }
  },
  "shaders": {
    "vertexShader0": {
      "type": 35633,
      "uri": "data:text/plain;base64,"
    },
    "fragmentShader0": {
      "type": 35632,
      "uri": "data:text/plain;base64,"
    },
    "vertexShader1": {
      "type": 35633,
      "uri": "data:text/plain;base64,"
    },
    "fragmentShader1": {
      "type": 35632,
      "uri": "data:text/plain;base64,"
    }
  },
  "skins": {},
  "extensions": {}
}
