{
  "accessors": {
    "accessor_index_0": {
      "bufferView": "bufferView_1",
      "byteOffset": 0,
      "byteStride": 0,
      "componentType": 5123,
      "count": 21291,
      "type": "SCALAR",
      "min": [
        0
      ],
      "max": [
        4256
      ]
    },
    "accessor_position": {
      "bufferView": "bufferView_0",
      "byteOffset": 0,
      "byteStride": 0,
      "componentType": 5126,
      "count": 4257,
      "min": [
        -0.9122589826583862,
        0.0011350000277161598,
        -0.4145070016384125
      ],
      "max": [
        0.931128978729248,
        3.6245460510253906,
        0.2910839915275574
      ],
      "type": "VEC3"
    },
    "accessor_normal": {
      "bufferView": "bufferView_0",
      "byteOffset": 51084,
      "byteStride": 0,
      "componentType": 5126,
      "count": 4257,
      "type": "VEC3",
      "min": [
        -0.9999783635139465,
        -0.9998621940612793,
        -0.9998764991760254
      ],
      "max": [
        0.9997833371162415,
        0.9993242025375366,
        0.9999821186065674
      ]
    },
    "accessor_uv": {
      "bufferView": "bufferView_0",
      "byteOffset": 102168,
      "byteStride": 0,
      "componentType": 5126,
      "count": 4257,
      "type": "VEC2",
      "min": [
        -0.5307620167732239,
        0.0016499999910593033
      ],
      "max": [
        0.9960939884185791,
        1.0012680292129517
      ]
    }
  },
  "asset": {
    "generator": "OBJ2GLTF",
    "premultipliedAlpha": true,
    "profile": {
      "api": "WebGL",
      "version": "1.0"
    },
    "version": "1.0"
  },
  "buffers": {
    "buffer_0": {
      "type": "arraybuffer",
      "byteLength": 178806,
      "uri": "data:application/octet-stream;base64,"
    }
  },
  "bufferViews": {
    "bufferView_0": {
      "buffer": "buffer_0",
      "byteLength": 136224,
      "byteOffset": 0,
      "target": 34962
    },
    "bufferView_1": {
      "buffer": "buffer_0",
      "byteLength": 42582,
      "byteOffset": 136224,
      "target": 34963
    }
  },
  "images": {
    "Lambent_Female_D": {
      "uri": "Lambent_Female_D.png"
    }
  },
  "materials": {
    "material_LambentFemale": {
      "name": "LambentFemale",
      "extensions": {},
      "values": {
        "ambient": [
          0,
          0,
          0,
          1
        ],
        "diffuse": "texture_Lambent_Female_D",
        "emission": [
          0,
          0,
          0,
          1
        ],
        "specular": [
          0.1,
          0.1,
          0.1,
          1
        ],
        "shininess": 96.078431,
        "transparency": 1
      },
      "technique": "technique0"
    }
  },
  "meshes": {
    "mesh_model": {
      "name": "model",
      "primitives": [
        {
          "attributes": {
            "POSITION": "accessor_position",
            "NORMAL": "accessor_normal",
            "TEXCOORD_0": "accessor_uv"
          },
          "indices": "accessor_index_0",
          "material": "material_LambentFemale",
          "mode": 4
        }
      ]
    }
  },
  "nodes": {
    "rootNode": {
      "children": [],
      "meshes": [
        "mesh_model"
      ],
      "matrix": [
        1,
        0,
        0,
        0,
        0,
        1,
        0,
        0,
        0,
        0,
        1,
        0,
        0,
        0,
        0,
        1
      ]
    }
  },
  "samplers": {
    "sampler_0": {
      "magFilter": 9729,
      "minFilter": 9986,
      "wrapS": 10497,
      "wrapT": 10497
    }
  },
  "scene": "scene_model",
  "scenes": {
    "scene_model": {
      "nodes": [
        "rootNode"
      ]
    }
  },
  "textures": {
    "texture_Lambent_Female_D": {
      "format": 6407,
      "internalFormat": 6407,
      "sampler": "sampler_0",
      "source": "Lambent_Female_D",
      "target": 3553,
      "type": 5121
    }
  },
  "extensionsUsed": [],
  "animations": {},
  "cameras": {},
  "techniques": {
    "technique0": {
      "attributes": {
        "a_position": "position",
        "a_normal": "normal",
        "a_texcoord_0": "texcoord_0"
      },
      "parameters": {
        "modelViewMatrix": {
          "semantic": "MODELVIEW",
          "type": 35676
        },
        "projectionMatrix": {
          "semantic": "PROJECTION",
          "type": 35676
        },
        "normalMatrix": {
          "semantic": "MODELVIEWINVERSETRANSPOSE",
          "type": 35675
        },
        "ambient": {
          "type": 35666
        },
        "diffuse": {
          "type": 35678
        },
        "emission": {
          "type": 35666
        },
        "specular": {
          "type": 35666
        },
        "shininess": {
          "type": 5126
        },
        "transparency": {
          "type": 5126
        },
        "position": {
          "semantic": "POSITION",
          "type": 35665
        },
        "normal": {
          "semantic": "NORMAL",
          "type": 35665
        },
        "texcoord_0": {
          "semantic": "TEXCOORD_0",
          "type": 35664
        }
      },
      "program": "program0",
      "states": {
        "enable": [
          2884,
          2929
        ]
      },
      "uniforms": {
        "u_modelViewMatrix": "modelViewMatrix",
        "u_projectionMatrix": "projectionMatrix",
        "u_normalMatrix": "normalMatrix",
        "u_ambient": "ambient",
        "u_diffuse": "diffuse",
        "u_emission": "emission",
        "u_specular": "specular",
        "u_shininess": "shininess",
        "u_transparency": "transparency"
      }
    }
  },
  "programs": {
    "program0": {
      "attributes": [
        "a_position",
        "a_normal",
        "a_texcoord_0"
      ],
      "fragmentShader": "fragmentShader0",
      "vertexShader": "vertexShader0"
    }
  },
  "shaders": {
    "vertexShader0": {
      "type": 35633,
      "uri": "data:text/plain;base64,"
    },
    "fragmentShader0": {
      "type": 35632,
      "uri": "data:text/plain;base64,"
    }
  },
  "skins": {},
  "extensions": {}
}
