{
  "accessors": {
    "accessor_index_0": {
      "bufferView": "bufferView_1",
      "byteOffset": 0,
      "byteStride": 0,
      "componentType": 5123,
      "count": 4776,
      "type": "SCALAR",
      "min": [
        0
      ],
      "max": [
        2420
      ]
    },
    "accessor_index_1": {
      "bufferView": "bufferView_1",
      "byteOffset": 9552,
      "byteStride": 0,
      "componentType": 5123,
      "count": 3000,
      "type": "SCALAR",
      "min": [
        2421
      ],
      "max": [
        3932
      ]
    },
    "accessor_index_2": {
      "bufferView": "bufferView_1",
      "byteOffset": 15552,
      "byteStride": 0,
      "componentType": 5123,
      "count": 1908,
      "type": "SCALAR",
      "min": [
        3933
      ],
      "max": [
        4994
      ]
    },
    "accessor_index_3": {
      "bufferView": "bufferView_1",
      "byteOffset": 19368,
      "byteStride": 0,
      "componentType": 5123,
      "count": 11877,
      "type": "SCALAR",
      "min": [
        4995
      ],
      "max": [
        10335
      ]
    },
    "accessor_index_4": {
      "bufferView": "bufferView_1",
      "byteOffset": 43122,
      "byteStride": 0,
      "componentType": 5123,
      "count": 35856,
      "type": "SCALAR",
      "min": [
        10336
      ],
      "max": [
        28667
      ]
    },
    "accessor_index_5": {
      "bufferView": "bufferView_1",
      "byteOffset": 114834,
      "byteStride": 0,
      "componentType": 5123,
      "count": 2184,
      "type": "SCALAR",
      "min": [
        28668
      ],
      "max": [
        29516
      ]
    },
    "accessor_index_6": {
      "bufferView": "bufferView_1",
      "byteOffset": 119202,
      "byteStride": 0,
      "componentType": 5123,
      "count": 246,
      "type": "SCALAR",
      "min": [
        29517
      ],
      "max": [
        29629
      ]
    },
    "accessor_index_7": {
      "bufferView": "bufferView_1",
      "byteOffset": 119694,
      "byteStride": 0,
      "componentType": 5123,
      "count": 42,
      "type": "SCALAR",
      "min": [
        29630
      ],
      "max": [
        29657
      ]
    },
    "accessor_index_8": {
      "bufferView": "bufferView_1",
      "byteOffset": 119778,
      "byteStride": 0,
      "componentType": 5123,
      "count": 552,
      "type": "SCALAR",
      "min": [
        29658
      ],
      "max": [
        29900
      ]
    },
    "accessor_position": {
      "bufferView": "bufferView_0",
      "byteOffset": 0,
      "byteStride": 0,
      "componentType": 5126,
      "count": 29901,
      "min": [
        -123.06490325927734,
        -0.1306000053882599,
        -222.04029846191406
      ],
      "max": [
        123.3385009765625,
        210.864501953125,
        197.6280975341797
      ],
      "type": "VEC3"
    },
    "accessor_normal": {
      "bufferView": "bufferView_0",
      "byteOffset": 358812,
      "byteStride": 0,
      "componentType": 5126,
      "count": 29901,
      "type": "VEC3",
      "min": [
        -1,
        -1,
        -1
      ],
      "max": [
        1,
        1,
        1
      ]
    },
    "accessor_uv": {
      "bufferView": "bufferView_0",
      "byteOffset": 717624,
      "byteStride": 0,
      "componentType": 5126,
      "count": 29901,
      "type": "VEC2",
      "min": [
        -1.7412999868392944,
        -18.779499053955078
      ],
      "max": [
        24.883499145507812,
        2.328200101852417
      ]
    }
  },
  "asset": {
    "generator": "OBJ2GLTF",
    "premultipliedAlpha": true,
    "profile": {
      "api": "WebGL",
      "version": "1.0"
    },
    "version": "1.0"
  },
  "buffers": {
    "buffer_0": {
      "type": "arraybuffer",
      "byteLength": 1077714,
      "uri": "data:application/octet-stream;base64,"
    }
  },
  "bufferViews": {
    "bufferView_0": {
      "buffer": "buffer_0",
      "byteLength": 956832,
      "byteOffset": 0,
      "target": 34962
    },
    "bufferView_1": {
      "buffer": "buffer_0",
      "byteLength": 120882,
      "byteOffset": 956832,
      "target": 34963
    }
  },
  "images": {
    "Tire_Defuse": {
      "uri": "Tire_Defuse.png"
    },
    "Main_Defuse": {
      "uri": "Main_Defuse.png"
    },
    "Main2_Defuse": {
      "uri": "Main2_Defuse.png"
    },
    "Floor_Defuse": {
      "uri": "Floor_Defuse.png"
    },
    "Logo_Defuse": {
      "uri": "Logo_Defuse.png"
    },
    "SteelGuide_Defuse": {
      "uri": "SteelGuide_Defuse.png"
    },
    "Stuff_Defuse": {
      "uri": "Stuff_Defuse.png"
    },
    "Stuff2_Defuse": {
      "uri": "Stuff2_Defuse.png"
    },
    "Glass_Defuse": {
      "uri": "Glass_Defuse.png"
    }
  },
  "materials": {
    "material_Material__4040": {
      "name": "Material__4040",
      "extensions": {},
      "values": {
        "ambient": [
          0,
          0,
          0,
          1
        ],
        "diffuse": "texture_Tire_Defuse",
        "emission": [
          0,
          0,
          0,
          1
        ],
        "specular": [
          0,
          0,
          0,
          1
        ],
        "shininess": 96.078431,
        "transparency": 1
      },
      "technique": "technique0"
    },
    "material_Material__4041": {
      "name": "Material__4041",
      "extensions": {},
      "values": {
        "ambient": [
          0,
          0,
          0,
          1
        ],
        "diffuse": "texture_Main_Defuse",
        "emission": [
          0,
          0,
          0,
          1
        ],
        "specular": [
          0,
          0,
          0,
          1
        ],
        "shininess": 96.078431,
        "transparency": 1
      },
      "technique": "technique0"
    },
    "material_Material__4043": {
      "name": "Material__4043",
      "extensions": {},
      "values": {
        "ambient": [
          0,
          0,
          0,
          1
        ],
        "diffuse": "texture_Main2_Defuse",
        "emission": [
          0,
          0,
          0,
          1
        ],
        "specular": [
          0,
          0,
          0,
          1
        ],
        "shininess": 96.078431,
        "transparency": 1
      },
      "technique": "technique0"
    },
    "material_Material__4045": {
      "name": "Material__4045",
      "extensions": {},
      "values": {
        "ambient": [
          0,
          0,
          0,
          1
        ],
        "diffuse": "texture_Floor_Defuse",
        "emission": [
          0,
          0,
          0,
          1
        ],
        "specular": [
          0,
          0,
          0,
          1
        ],
        "shininess": 96.078431,
        "transparency": 1
      },
      "technique": "technique0"
    },
    "material_Material__4046": {
      "name": "Material__4046",
      "extensions": {},
      "values": {
        "ambient": [
          0,
          0,
          0,
          1
        ],
        "diffuse": "texture_Logo_Defuse",
        "emission": [
          0,
          0,
          0,
          1
        ],
        "specular": [
          0,
          0,
          0,
          1
        ],
        "shininess": 96.078431,
        "transparency": 1
      },
      "technique": "technique0"
    },
    "material_Material__4048": {
      "name": "Material__4048",
      "extensions": {},
      "values": {
        "ambient": [
          0,
          0,
          0,
          1
        ],
        "diffuse": "texture_SteelGuide_Defuse",
        "emission": [
          0,
          0,
          0,
          1
        ],
        "specular": [
          0,
          0,
          0,
          1
        ],
        "shininess": 96.078431,
        "transparency": 1
      },
      "technique": "technique0"
    },
    "material_Material__4049": {
      "name": "Material__4049",
      "extensions": {},
      "values": {
        "ambient": [
          0,
          0,
          0,
          1
        ],
        "diffuse": "texture_Stuff_Defuse",
        "emission": [
          0,
          0,
          0,
          1
        ],
        "specular": [
          0,
          0,
          0,
          1
        ],
        "shininess": 96.078431,
        "transparency": 1
      },
      "technique": "technique0"
    },
    "material_Material__4051": {
      "name": "Material__4051",
      "extensions": {},
      "values": {
        "ambient": [
          0,
          0,
          0,
          1
        ],
        "diffuse": "texture_Stuff2_Defuse",
        "emission": [
          0,
          0,
          0,
          1
        ],
        "specular": [
          0,
          0,
          0,
          1
        ],
        "shininess": 96.078431,
        "transparency": 1
      },
      "technique": "technique0"
    },
    "material_Material__4053": {
      "name": "Material__4053",
      "extensions": {},
      "values": {
        "ambient": [
          0,
          0,
          0,
          1
        ],
        "diffuse": "texture_Glass_Defuse",
        "emission": [
          0,
          0,
          0,
          1
        ],
        "specular": [
          0,
          0,
          0,
          1
        ],
        "shininess": 96.078431,
        "transparency": 1
      },
      "technique": "technique0"
    }
  },
  "meshes": {
    "mesh_model": {
      "name": "model",
      "primitives": [
        {
          "attributes": {
            "POSITION": "accessor_position",
            "NORMAL": "accessor_normal",
            "TEXCOORD_0": "accessor_uv"
          },
          "indices": "accessor_index_0",
          "material": "material_Material__4048",
          "mode": 4
        },
        {
          "attributes": {
            "POSITION": "accessor_position",
            "NORMAL": "accessor_normal",
            "TEXCOORD_0": "accessor_uv"
          },
          "indices": "accessor_index_1",
          "material": "material_Material__4043",
          "mode": 4
        },
        {
          "attributes": {
            "POSITION": "accessor_position",
            "NORMAL": "accessor_normal",
            "TEXCOORD_0": "accessor_uv"
          },
          "indices": "accessor_index_2",
          "material": "material_Material__4046",
          "mode": 4
        },
        {
          "attributes": {
            "POSITION": "accessor_position",
            "NORMAL": "accessor_normal",
            "TEXCOORD_0": "accessor_uv"
          },
          "indices": "accessor_index_3",
          "material": "material_Material__4041",
          "mode": 4
        },
        {
          "attributes": {
            "POSITION": "accessor_position",
            "NORMAL": "accessor_normal",
            "TEXCOORD_0": "accessor_uv"
          },
          "indices": "accessor_index_4",
          "material": "material_Material__4040",
          "mode": 4
        },
        {
          "attributes": {
            "POSITION": "accessor_position",
            "NORMAL": "accessor_normal",
            "TEXCOORD_0": "accessor_uv"
          },
          "indices": "accessor_index_5",
          "material": "material_Material__4049",
          "mode": 4
        },
        {
          "attributes": {
            "POSITION": "accessor_position",
            "NORMAL": "accessor_normal",
            "TEXCOORD_0": "accessor_uv"
          },
          "indices": "accessor_index_6",
          "material": "material_Material__4045",
          "mode": 4
        },
        {
          "attributes": {
            "POSITION": "accessor_position",
            "NORMAL": "accessor_normal",
            "TEXCOORD_0": "accessor_uv"
          },
          "indices": "accessor_index_7",
          "material": "material_Material__4053",
          "mode": 4
        },
        {
          "attributes": {
            "POSITION": "accessor_position",
            "NORMAL": "accessor_normal",
            "TEXCOORD_0": "accessor_uv"
          },
          "indices": "accessor_index_8",
          "material": "material_Material__4051",
          "mode": 4
        }
      ]
    }
  },
  "nodes": {
    "rootNode": {
      "children": [],
      "meshes": [
        "mesh_model"
      ],
      "matrix": [
        1,
        0,
        0,
        0,
        0,
        1,
        0,
        0,
        0,
        0,
        1,
        0,
        0,
        0,
        0,
        1
      ]
    }
  },
  "samplers": {
    "sampler_0": {
      "magFilter": 9729,
      "minFilter": 9986,
      "wrapS": 10497,
      "wrapT": 10497
    }
  },
  "scene": "scene_model",
  "scenes": {
    "scene_model": {
      "nodes": [
        "rootNode"
      ]
    }
  },
  "textures": {
    "texture_Tire_Defuse": {
      "format": 6407,
      "internalFormat": 6407,
      "sampler": "sampler_0",
      "source": "Tire_Defuse",
      "target": 3553,
      "type": 5121
    },
    "texture_Main_Defuse": {
      "format": 6407,
      "internalFormat": 6407,
      "sampler": "sampler_0",
      "source": "Main_Defuse",
      "target": 3553,
      "type": 5121
    },
    "texture_Main2_Defuse": {
      "format": 6407,
      "internalFormat": 6407,
      "sampler": "sampler_0",
      "source": "Main2_Defuse",
      "target": 3553,
      "type": 5121
    },
    "texture_Floor_Defuse": {
      "format": 6407,
      "internalFormat": 6407,
      "sampler": "sampler_0",
      "source": "Floor_Defuse",
      "target": 3553,
      "type": 5121
    },
    "texture_Logo_Defuse": {
      "format": 6407,
      "internalFormat": 6407,
      "sampler": "sampler_0",
      "source": "Logo_Defuse",
      "target": 3553,
      "type": 5121
    },
    "texture_SteelGuide_Defuse": {
      "format": 6407,
      "internalFormat": 6407,
      "sampler": "sampler_0",
      "source": "SteelGuide_Defuse",
      "target": 3553,
      "type": 5121
    },
    "texture_Stuff_Defuse": {
      "format": 6407,
      "internalFormat": 6407,
      "sampler": "sampler_0",
      "source": "Stuff_Defuse",
      "target": 3553,
      "type": 5121
    },
    "texture_Stuff2_Defuse": {
      "format": 6407,
      "internalFormat": 6407,
      "sampler": "sampler_0",
      "source": "Stuff2_Defuse",
      "target": 3553,
      "type": 5121
    },
    "texture_Glass_Defuse": {
      "format": 6407,
      "internalFormat": 6407,
      "sampler": "sampler_0",
      "source": "Glass_Defuse",
      "target": 3553,
      "type": 5121
    }
  },
  "extensionsUsed": [],
  "animations": {},
  "cameras": {},
  "techniques": {
    "technique0": {
      "attributes": {
        "a_position": "position",
        "a_normal": "normal",
        "a_texcoord_0": "texcoord_0"
      },
      "parameters": {
        "modelViewMatrix": {
          "semantic": "MODELVIEW",
          "type": 35676
        },
        "projectionMatrix": {
          "semantic": "PROJECTION",
          "type": 35676
        },
        "normalMatrix": {
          "semantic": "MODELVIEWINVERSETRANSPOSE",
          "type": 35675
        },
        "ambient": {
          "type": 35666
        },
        "diffuse": {
          "type": 35678
        },
        "emission": {
          "type": 35666
        },
        "specular": {
          "type": 35666
        },
        "shininess": {
          "type": 5126
        },
        "transparency": {
          "type": 5126
        },
        "position": {
          "semantic": "POSITION",
          "type": 35665
        },
        "normal": {
          "semantic": "NORMAL",
          "type": 35665
        },
        "texcoord_0": {
          "semantic": "TEXCOORD_0",
          "type": 35664
        }
      },
      "program": "program0",
      "states": {
        "enable": [
          2884,
          2929
        ]
      },
      "uniforms": {
        "u_modelViewMatrix": "modelViewMatrix",
        "u_projectionMatrix": "projectionMatrix",
        "u_normalMatrix": "normalMatrix",
        "u_ambient": "ambient",
        "u_diffuse": "diffuse",
        "u_emission": "emission",
        "u_specular": "specular",
        "u_shininess": "shininess",
        "u_transparency": "transparency"
      }
    }
  },
  "programs": {
    "program0": {
      "attributes": [
        "a_position",
        "a_normal",
        "a_texcoord_0"
      ],
      "fragmentShader": "fragmentShader0",
      "vertexShader": "vertexShader0"
    }
  },
  "shaders": {
    "vertexShader0": {
      "type": 35633,
      "uri": "data:text/plain;base64,"
    },
    "fragmentShader0": {
      "type": 35632,
      "uri": "data:text/plain;base64,"
    }
  },
  "skins": {},
  "extensions": {}
}
