{
  "accessors": {
    "accessor_index_0": {
      "bufferView": "bufferView_1",
      "byteOffset": 0,
      "byteStride": 0,
      "componentType": 5123,
      "count": 14922,
      "type": "SCALAR",
      "min": [
        0
      ],
      "max": [
        3531
      ]
    },
    "accessor_index_1": {
      "bufferView": "bufferView_1",
      "byteOffset": 29844,
      "byteStride": 0,
      "componentType": 5123,
      "count": 150,
      "type": "SCALAR",
      "min": [
        3532
      ],
      "max": [
        3574
      ]
    },
    "accessor_position": {
      "bufferView": "bufferView_0",
      "byteOffset": 0,
      "byteStride": 0,
      "componentType": 5126,
      "count": 3575,
      "min": [
        -0.2714900076389313,
        -0.001353000057861209,
        -0.09566099941730499
      ],
      "max": [
        0.2714900076389313,
        0.7764660120010376,
        0.08364800363779068
      ],
      "type": "VEC3"
    },
    "accessor_normal": {
      "bufferView": "bufferView_0",
      "byteOffset": 42900,
      "byteStride": 0,
      "componentType": 5126,
      "count": 3575,
      "type": "VEC3",
      "min": [
        -0.9991667866706848,
        -0.9995794296264648,
        -0.9999381303787231
      ],
      "max": [
        0.9999855756759644,
        0.9998361468315125,
        0.9999777674674988
      ]
    },
    "accessor_uv": {
      "bufferView": "bufferView_0",
      "byteOffset": 85800,
      "byteStride": 0,
      "componentType": 5126,
      "count": 3575,
      "type": "VEC2",
      "min": [
        0.001832999987527728,
        1.0016119480133057
      ],
      "max": [
        0.9984470009803772,
        1.998533010482788
      ]
    }
  },
  "asset": {
    "generator": "OBJ2GLTF",
    "premultipliedAlpha": true,
    "profile": {
      "api": "WebGL",
      "version": "1.0"
    },
    "version": "1.0"
  },
  "buffers": {
    "buffer_0": {
      "type": "arraybuffer",
      "byteLength": 144544,
      "uri": "data:application/octet-stream;base64,"
    }
  },
  "bufferViews": {
    "bufferView_0": {
      "buffer": "buffer_0",
      "byteLength": 114400,
      "byteOffset": 0,
      "target": 34962
    },
    "bufferView_1": {
      "buffer": "buffer_0",
      "byteLength": 30144,
      "byteOffset": 114400,
      "target": 34963
    }
  },
  "images": {
    "ct_urban": {
      "uri": "ct_urban.jpeg"
    },
    "ct_urban_glass": {
      "uri": "ct_urban_glass.png"
    }
  },
  "materials": {
    "material_Material.001": {
      "name": "Material.001",
      "extensions": {},
      "values": {
        "ambient": [
          0,
          0,
          0,
          1
        ],
        "diffuse": "texture_ct_urban",
        "emission": [
          0,
          0,
          0,
          1
        ],
        "specular": [
          0.1,
          0.1,
          0.1,
          1
        ],
        "shininess": 96.078431,
        "transparency": 1
      },
      "technique": "technique0"
    },
    "material_Material.002": {
      "name": "Material.002",
      "extensions": {},
      "values": {
        "ambient": [
          0,
          0,
          0,
          1
        ],
        "diffuse": "texture_ct_urban_glass",
        "emission": [
          0,
          0,
          0,
          1
        ],
        "specular": [
          0.1,
          0.1,
          0.1,
          1
        ],
        "shininess": 96.078431,
        "transparency": 1
      },
      "technique": "technique1"
    }
  },
  "meshes": {
    "mesh_model": {
      "name": "model",
      "primitives": [
        {
          "attributes": {
            "POSITION": "accessor_position",
            "NORMAL": "accessor_normal",
            "TEXCOORD_0": "accessor_uv"
          },
          "indices": "accessor_index_0",
          "material": "material_Material.001",
          "mode": 4
        },
        {
          "attributes": {
            "POSITION": "accessor_position",
            "NORMAL": "accessor_normal",
            "TEXCOORD_0": "accessor_uv"
          },
          "indices": "accessor_index_1",
          "material": "material_Material.002",
          "mode": 4
        }
      ]
    }
  },
  "nodes": {
    "rootNode": {
      "children": [],
      "meshes": [
        "mesh_model"
      ],
      "matrix": [
        1,
        0,
        0,
        0,
        0,
        1,
        0,
        0,
        0,
        0,
        1,
        0,
        0,
        0,
        0,
        1
      ]
    }
  },
  "samplers": {
    "sampler_0": {
      "magFilter": 9729,
      "minFilter": 9986,
      "wrapS": 10497,
      "wrapT": 10497
    }
  },
  "scene": "scene_model",
  "scenes": {
    "scene_model": {
      "nodes": [
        "rootNode"
      ]
    }
  },
  "textures": {
    "texture_ct_urban": {
      "format": 6407,
      "internalFormat": 6407,
      "sampler": "sampler_0",
      "source": "ct_urban",
      "target": 3553,
      "type": 5121
    },
    "texture_ct_urban_glass": {
      "format": 6407,
      "internalFormat": 6407,
      "sampler": "sampler_0",
      "source": "ct_urban_glass",
      "target": 3553,
      "type": 5121
    }
  },
  "extensionsUsed": [],
  "animations": {},
  "cameras": {},
  "techniques": {
    "technique0": {
      "attributes": {
        "a_position": "position",
        "a_normal": "normal",
        "a_texcoord_0": "texcoord_0"
      },
      "parameters": {
        "modelViewMatrix": {
          "semantic": "MODELVIEW",
          "type": 35676
        },
        "projectionMatrix": {
          "semantic": "PROJECTION",
          "type": 35676
        },
        "normalMatrix": {
          "semantic": "MODELVIEWINVERSETRANSPOSE",
          "type": 35675
        },
        "ambient": {
          "type": 35666
        },
        "diffuse": {
          "type": 35678
        },
        "emission": {
          "type": 35666
        },
        "specular": {
          "type": 35666
        },
        "shininess": {
          "type": 5126
        },
        "transparency": {
          "type": 5126
        },
        "position": {
          "semantic": "POSITION",
          "type": 35665
        },
        "normal": {
          "semantic": "NORMAL",
          "type": 35665
        },
        "texcoord_0": {
          "semantic": "TEXCOORD_0",
          "type": 35664
        }
      },
      "program": "program0",
      "states": {
        "enable": [
          2884,
          2929
        ]
      },
      "uniforms": {
        "u_modelViewMatrix": "modelViewMatrix",
        "u_projectionMatrix": "projectionMatrix",
        "u_normalMatrix": "normalMatrix",
        "u_ambient": "ambient",
        "u_diffuse": "diffuse",
        "u_emission": "emission",
        "u_specular": "specular",
        "u_shininess": "shininess",
        "u_transparency": "transparency"
      }
    },
    "technique1": {
      "attributes": {
        "a_position": "position",
        "a_normal": "normal",
        "a_texcoord_0": "texcoord_0"
      },
      "parameters": {
        "modelViewMatrix": {
          "semantic": "MODELVIEW",
          "type": 35676
        },
        "projectionMatrix": {
          "semantic": "PROJECTION",
          "type": 35676
        },
        "normalMatrix": {
          "semantic": "MODELVIEWINVERSETRANSPOSE",
          "type": 35675
        },
        "ambient": {
          "type": 35666
        },
        "diffuse": {
          "type": 35678
        },
        "emission": {
          "type": 35666
        },
        "specular": {
          "type": 35666
        },
        "shininess": {
          "type": 5126
        },
        "transparency": {
          "type": 5126
        },
        "position": {
          "semantic": "POSITION",
          "type": 35665
        },
        "normal": {
          "semantic": "NORMAL",
          "type": 35665
        },
        "texcoord_0": {
          "semantic": "TEXCOORD_0",
          "type": 35664
        }
      },
      "program": "program1",
      "states": {
        "enable": [
          2929,
          3042
        ],
        "depthMask": false,
        "functions": {
          "blendEquationSeparate": [
            32774,
            32774
          ],
          "blendFuncSeparate": [
            1,
            771,
            1,
            771
          ]
        }
      },
      "uniforms": {
        "u_modelViewMatrix": "modelViewMatrix",
        "u_projectionMatrix": "projectionMatrix",
        "u_normalMatrix": "normalMatrix",
        "u_ambient": "ambient",
        "u_diffuse": "diffuse",
        "u_emission": "emission",
        "u_specular": "specular",
        "u_shininess": "shininess",
        "u_transparency": "transparency"
      }
    }
  },
  "programs": {
    "program0": {
      "attributes": [
        "a_position",
        "a_normal",
        "a_texcoord_0"
      ],
      "fragmentShader": "fragmentShader0",
      "vertexShader": "vertexShader0"
    },
    "program1": {
      "attributes": [
        "a_position",
        "a_normal",
        "a_texcoord_0"
      ],
      "fragmentShader": "fragmentShader1",
      "vertexShader": "vertexShader1"
    }
  },
  "shaders": {
    "vertexShader0": {
      "type": 35633,
      "uri": "data:text/plain;base64,"
    },
    "fragmentShader0": {
      "type": 35632,
      "uri": "data:text/plain;base64,"
    },
    "vertexShader1": {
      "type": 35633,
      "uri": "data:text/plain;base64,"
    },
    "fragmentShader1": {
      "type": 35632,
      "uri": "data:text/plain;base64,"
    }
  },
  "skins": {},
  "extensions": {}
}
