{
  "accessors": {
    "accessor_index_0": {
      "bufferView": "bufferView_1",
      "byteOffset": 0,
      "byteStride": 0,
      "componentType": 5123,
      "count": 3264,
      "type": "SCALAR",
      "min": [
        0
      ],
      "max": [
        1198
      ]
    },
    "accessor_index_1": {
      "bufferView": "bufferView_1",
      "byteOffset": 6528,
      "byteStride": 0,
      "componentType": 5123,
      "count": 12927,
      "type": "SCALAR",
      "min": [
        1199
      ],
      "max": [
        6386
      ]
    },
    "accessor_index_2": {
      "bufferView": "bufferView_1",
      "byteOffset": 32382,
      "byteStride": 0,
      "componentType": 5123,
      "count": 10305,
      "type": "SCALAR",
      "min": [
        6387
      ],
      "max": [
        10305
      ]
    },
    "accessor_index_3": {
      "bufferView": "bufferView_1",
      "byteOffset": 52992,
      "byteStride": 0,
      "componentType": 5123,
      "count": 16749,
      "type": "SCALAR",
      "min": [
        10306
      ],
      "max": [
        17056
      ]
    },
    "accessor_index_4": {
      "bufferView": "bufferView_1",
      "byteOffset": 86490,
      "byteStride": 0,
      "componentType": 5123,
      "count": 8364,
      "type": "SCALAR",
      "min": [
        17057
      ],
      "max": [
        20144
      ]
    },
    "accessor_position": {
      "bufferView": "bufferView_0",
      "byteOffset": 0,
      "byteStride": 0,
      "componentType": 5126,
      "count": 20135,
      "min": [
        -1.848214030265808,
        0.004738999996334314,
        -6.184563159942627
      ],
      "max": [
        1.9226030111312866,
        4.1495819091796875,
        3.841308116912842
      ],
      "type": "VEC3"
    },
    "accessor_normal": {
      "bufferView": "bufferView_0",
      "byteOffset": 241620,
      "byteStride": 0,
      "componentType": 5126,
      "count": 20135,
      "type": "VEC3",
      "min": [
        -0.9999788999557495,
        -0.9999726414680481,
        -0.9999962449073792
      ],
      "max": [
        0.9999945759773254,
        0.9999726414680481,
        0.9999945163726807
      ]
    },
    "accessor_uv": {
      "bufferView": "bufferView_0",
      "byteOffset": 483240,
      "byteStride": 0,
      "componentType": 5126,
      "count": 20135,
      "type": "VEC2",
      "min": [
        -3.562180995941162,
        -1.2884689569473267
      ],
      "max": [
        3.8515560626983643,
        3.609776020050049
      ]
    }
  },
  "asset": {
    "generator": "OBJ2GLTF",
    "premultipliedAlpha": true,
    "profile": {
      "api": "WebGL",
      "version": "1.0"
    },
    "version": "1.0"
  },
  "buffers": {
    "buffer_0": {
      "type": "arraybuffer",
      "byteLength": 747538,
      "uri": "data:application/octet-stream;base64,"
    }
  },
  "bufferViews": {
    "bufferView_0": {
      "buffer": "buffer_0",
      "byteLength": 644320,
      "byteOffset": 0,
      "target": 34962
    },
    "bufferView_1": {
      "buffer": "buffer_0",
      "byteLength": 103218,
      "byteOffset": 644320,
      "target": 34963
    }
  },
  "images": {
    "Body 1": {
      "uri": "Body 1.jpeg"
    },
    "Body 2": {
      "uri": "Body 2.jpeg"
    },
    "Track": {
      "uri": "Track.jpeg"
    },
    "Turret": {
      "uri": "Turret.jpeg"
    },
    "Turret 2": {
      "uri": "Turret 2.jpeg"
    }
  },
  "materials": {
    "material_Body1": {
      "name": "Body1",
      "extensions": {},
      "values": {
        "ambient": [
          0,
          0,
          0,
          1
        ],
        "diffuse": "texture_Body 1",
        "emission": [
          0,
          0,
          0,
          1
        ],
        "specular": [
          0.003922,
          0.003529,
          0.003529,
          1
        ],
        "shininess": 96.078431,
        "transparency": 1
      },
      "technique": "technique0"
    },
    "material_Body2": {
      "name": "Body2",
      "extensions": {},
      "values": {
        "ambient": [
          0,
          0,
          0,
          1
        ],
        "diffuse": "texture_Body 2",
        "emission": [
          0,
          0,
          0,
          1
        ],
        "specular": [
          0.003922,
          0.003529,
          0.003529,
          1
        ],
        "shininess": 96.078431,
        "transparency": 1
      },
      "technique": "technique0"
    },
    "material_Track": {
      "name": "Track",
      "extensions": {},
      "values": {
        "ambient": [
          0,
          0,
          0,
          1
        ],
        "diffuse": "texture_Track",
        "emission": [
          0,
          0,
          0,
          1
        ],
        "specular": [
          0.045098,
          0.044706,
          0.044706,
          1
        ],
        "shininess": 96.078431,
        "transparency": 1
      },
      "technique": "technique0"
    },
    "material_Turret": {
      "name": "Turret",
      "extensions": {},
      "values": {
        "ambient": [
          0,
          0,
          0,
          1
        ],
        "diffuse": "texture_Turret",
        "emission": [
          0,
          0,
          0,
          1
        ],
        "specular": [
          0.003922,
          0.003529,
          0.003529,
          1
        ],
        "shininess": 96.078431,
        "transparency": 1
      },
      "technique": "technique0"
    },
    "material_Turret_2": {
      "name": "Turret_2",
      "extensions": {},
      "values": {
        "ambient": [
          0,
          0,
          0,
          1
        ],
        "diffuse": "texture_Turret 2",
        "emission": [
          0,
          0,
          0,
          1
        ],
        "specular": [
          0.003922,
          0.003529,
          0.003529,
          1
        ],
        "shininess": 96.078431,
        "transparency": 1
      },
      "technique": "technique0"
    }
  },
  "meshes": {
    "mesh_model": {
      "name": "model",
      "primitives": [
        {
          "attributes": {
            "POSITION": "accessor_position",
            "NORMAL": "accessor_normal",
            "TEXCOORD_0": "accessor_uv"
          },
          "indices": "accessor_index_0",
          "material": "material_Track",
          "mode": 4
        },
        {
          "attributes": {
            "POSITION": "accessor_position",
            "NORMAL": "accessor_normal",
            "TEXCOORD_0": "accessor_uv"
          },
          "indices": "accessor_index_1",
          "material": "material_Body1",
          "mode": 4
        },
        {
          "attributes": {
            "POSITION": "accessor_position",
            "NORMAL": "accessor_normal",
            "TEXCOORD_0": "accessor_uv"
          },
          "indices": "accessor_index_2",
          "material": "material_Turret",
          "mode": 4
        },
        {
          "attributes": {
            "POSITION": "accessor_position",
            "NORMAL": "accessor_normal",
            "TEXCOORD_0": "accessor_uv"
          },
          "indices": "accessor_index_3",
          "material": "material_Body2",
          "mode": 4
        },
        {
          "attributes": {
            "POSITION": "accessor_position",
            "NORMAL": "accessor_normal",
            "TEXCOORD_0": "accessor_uv"
          },
          "indices": "accessor_index_4",
          "material": "material_Turret_2",
          "mode": 4
        }
      ]
    }
  },
  "nodes": {
    "rootNode": {
      "children": [],
      "meshes": [
        "mesh_model"
      ],
      "matrix": [
        1,
        0,
        0,
        0,
        0,
        1,
        0,
        0,
        0,
        0,
        1,
        0,
        0,
        0,
        0,
        1
      ]
    }
  },
  "samplers": {
    "sampler_0": {
      "magFilter": 9729,
      "minFilter": 9986,
      "wrapS": 10497,
      "wrapT": 10497
    }
  },
  "scene": "scene_model",
  "scenes": {
    "scene_model": {
      "nodes": [
        "rootNode"
      ]
    }
  },
  "textures": {
    "texture_Body 1": {
      "format": 6407,
      "internalFormat": 6407,
      "sampler": "sampler_0",
      "source": "Body 1",
      "target": 3553,
      "type": 5121
    },
    "texture_Body 2": {
      "format": 6407,
      "internalFormat": 6407,
      "sampler": "sampler_0",
      "source": "Body 2",
      "target": 3553,
      "type": 5121
    },
    "texture_Track": {
      "format": 6407,
      "internalFormat": 6407,
      "sampler": "sampler_0",
      "source": "Track",
      "target": 3553,
      "type": 5121
    },
    "texture_Turret": {
      "format": 6407,
      "internalFormat": 6407,
      "sampler": "sampler_0",
      "source": "Turret",
      "target": 3553,
      "type": 5121
    },
    "texture_Turret 2": {
      "format": 6407,
      "internalFormat": 6407,
      "sampler": "sampler_0",
      "source": "Turret 2",
      "target": 3553,
      "type": 5121
    }
  },
  "extensionsUsed": [],
  "animations": {},
  "cameras": {},
  "techniques": {
    "technique0": {
      "attributes": {
        "a_position": "position",
        "a_normal": "normal",
        "a_texcoord_0": "texcoord_0"
      },
      "parameters": {
        "modelViewMatrix": {
          "semantic": "MODELVIEW",
          "type": 35676
        },
        "projectionMatrix": {
          "semantic": "PROJECTION",
          "type": 35676
        },
        "normalMatrix": {
          "semantic": "MODELVIEWINVERSETRANSPOSE",
          "type": 35675
        },
        "ambient": {
          "type": 35666
        },
        "diffuse": {
          "type": 35678
        },
        "emission": {
          "type": 35666
        },
        "specular": {
          "type": 35666
        },
        "shininess": {
          "type": 5126
        },
        "transparency": {
          "type": 5126
        },
        "position": {
          "semantic": "POSITION",
          "type": 35665
        },
        "normal": {
          "semantic": "NORMAL",
          "type": 35665
        },
        "texcoord_0": {
          "semantic": "TEXCOORD_0",
          "type": 35664
        }
      },
      "program": "program0",
      "states": {
        "enable": [
          2884,
          2929
        ]
      },
      "uniforms": {
        "u_modelViewMatrix": "modelViewMatrix",
        "u_projectionMatrix": "projectionMatrix",
        "u_normalMatrix": "normalMatrix",
        "u_ambient": "ambient",
        "u_diffuse": "diffuse",
        "u_emission": "emission",
        "u_specular": "specular",
        "u_shininess": "shininess",
        "u_transparency": "transparency"
      }
    }
  },
  "programs": {
    "program0": {
      "attributes": [
        "a_position",
        "a_normal",
        "a_texcoord_0"
      ],
      "fragmentShader": "fragmentShader0",
      "vertexShader": "vertexShader0"
    }
  },
  "shaders": {
    "vertexShader0": {
      "type": 35633,
      "uri": "data:text/plain;base64,"
    },
    "fragmentShader0": {
      "type": 35632,
      "uri": "data:text/plain;base64,"
    }
  },
  "skins": {},
  "extensions": {}
}
