{
  "accessors": {
    "accessor_index_0": {
      "bufferView": "bufferView_1",
      "byteOffset": 0,
      "byteStride": 0,
      "componentType": 5123,
      "count": 5400,
      "type": "SCALAR",
      "min": [
        32173
      ],
      "max": [
        33133
      ]
    },
    "accessor_index_1": {
      "bufferView": "bufferView_1",
      "byteOffset": 10800,
      "byteStride": 0,
      "componentType": 5123,
      "count": 18480,
      "type": "SCALAR",
      "min": [
        0
      ],
      "max": [
        22655
      ]
    },
    "accessor_index_2": {
      "bufferView": "bufferView_1",
      "byteOffset": 47760,
      "byteStride": 0,
      "componentType": 5123,
      "count": 1554,
      "type": "SCALAR",
      "min": [
        1113
      ],
      "max": [
        16393
      ]
    },
    "accessor_index_3": {
      "bufferView": "bufferView_1",
      "byteOffset": 50868,
      "byteStride": 0,
      "componentType": 5123,
      "count": 5238,
      "type": "SCALAR",
      "min": [
        1120
      ],
      "max": [
        32096
      ]
    },
    "accessor_index_4": {
      "bufferView": "bufferView_1",
      "byteOffset": 61344,
      "byteStride": 0,
      "componentType": 5123,
      "count": 6492,
      "type": "SCALAR",
      "min": [
        2947
      ],
      "max": [
        32129
      ]
    },
    "accessor_index_5": {
      "bufferView": "bufferView_1",
      "byteOffset": 74328,
      "byteStride": 0,
      "componentType": 5123,
      "count": 32988,
      "type": "SCALAR",
      "min": [
        2949
      ],
      "max": [
        30799
      ]
    },
    "accessor_index_6": {
      "bufferView": "bufferView_1",
      "byteOffset": 140304,
      "byteStride": 0,
      "componentType": 5123,
      "count": 3639,
      "type": "SCALAR",
      "min": [
        3800
      ],
      "max": [
        29539
      ]
    },
    "accessor_index_7": {
      "bufferView": "bufferView_1",
      "byteOffset": 147582,
      "byteStride": 0,
      "componentType": 5123,
      "count": 318,
      "type": "SCALAR",
      "min": [
        5060
      ],
      "max": [
        7321
      ]
    },
    "accessor_index_8": {
      "bufferView": "bufferView_1",
      "byteOffset": 148218,
      "byteStride": 0,
      "componentType": 5123,
      "count": 132,
      "type": "SCALAR",
      "min": [
        8098
      ],
      "max": [
        29459
      ]
    },
    "accessor_index_9": {
      "bufferView": "bufferView_1",
      "byteOffset": 148482,
      "byteStride": 0,
      "componentType": 5123,
      "count": 42,
      "type": "SCALAR",
      "min": [
        10580
      ],
      "max": [
        10607
      ]
    },
    "accessor_index_10": {
      "bufferView": "bufferView_1",
      "byteOffset": 148566,
      "byteStride": 0,
      "componentType": 5123,
      "count": 432,
      "type": "SCALAR",
      "min": [
        32130
      ],
      "max": [
        33176
      ]
    },
    "accessor_index_11": {
      "bufferView": "bufferView_1",
      "byteOffset": 149430,
      "byteStride": 0,
      "componentType": 5123,
      "count": 5400,
      "type": "SCALAR",
      "min": [
        33177
      ],
      "max": [
        34137
      ]
    },
    "accessor_index_12": {
      "bufferView": "bufferView_1",
      "byteOffset": 160230,
      "byteStride": 0,
      "componentType": 5123,
      "count": 1776,
      "type": "SCALAR",
      "min": [
        34138
      ],
      "max": [
        34457
      ]
    },
    "accessor_position": {
      "bufferView": "bufferView_0",
      "byteOffset": 0,
      "byteStride": 0,
      "componentType": 5126,
      "count": 29033,
      "min": [
        -570.7391357421875,
        9.283561706542969,
        -1773.01953125
      ],
      "max": [
        451.0966491699219,
        1911.96826171875,
        1749.679931640625
      ],
      "type": "VEC3"
    },
    "accessor_normal": {
      "bufferView": "bufferView_0",
      "byteOffset": 348396,
      "byteStride": 0,
      "componentType": 5126,
      "count": 29033,
      "type": "VEC3",
      "min": [
        null,
        null,
        null
      ],
      "max": [
        null,
        null,
        null
      ]
    }
  },
  "asset": {
    "generator": "OBJ2GLTF",
    "premultipliedAlpha": true,
    "profile": {
      "api": "WebGL",
      "version": "1.0"
    },
    "version": "1.0"
  },
  "buffers": {
    "buffer_0": {
      "type": "arraybuffer",
      "byteLength": 860574,
      "uri": "data:application/octet-stream;base64,"
    }
  },
  "bufferViews": {
    "bufferView_0": {
      "buffer": "buffer_0",
      "byteLength": 696792,
      "byteOffset": 0,
      "target": 34962
    },
    "bufferView_1": {
      "buffer": "buffer_0",
      "byteLength": 163782,
      "byteOffset": 696792,
      "target": 34963
    }
  },
  "images": {},
  "materials": {
    "material_1": {
      "name": "1",
      "extensions": {},
      "values": {
        "ambient": [
          0.5,
          0.5,
          0.5,
          1
        ],
        "diffuse": [
          0.5,
          0.5,
          0.5,
          1
        ],
        "emission": [
          0,
          0,
          0,
          1
        ],
        "specular": [
          0,
          0,
          0,
          1
        ],
        "shininess": 10,
        "transparency": 1
      },
      "technique": "technique0"
    },
    "material_boat": {
      "name": "boat",
      "extensions": {},
      "values": {
        "ambient": [
          0.5,
          0.5,
          0.5,
          1
        ],
        "diffuse": [
          0.5,
          0.5,
          0.5,
          1
        ],
        "emission": [
          0,
          0,
          0,
          1
        ],
        "specular": [
          0,
          0,
          0,
          1
        ],
        "shininess": 10,
        "transparency": 1
      },
      "technique": "technique0"
    },
    "material_boat2": {
      "name": "boat2",
      "extensions": {},
      "values": {
        "ambient": [
          0.5,
          0.5,
          0.5,
          1
        ],
        "diffuse": [
          0.5,
          0.5,
          0.5,
          1
        ],
        "emission": [
          0,
          0,
          0,
          1
        ],
        "specular": [
          0.1,
          0.1,
          0.1,
          1
        ],
        "shininess": 10,
        "transparency": 1
      },
      "technique": "technique0"
    },
    "material_Croco_,Black_Ski": {
      "name": "Croco_,Black_Ski",
      "extensions": {},
      "values": {
        "ambient": [
          0.6,
          0.4,
          0.4,
          1
        ],
        "diffuse": [
          0.6,
          0.4,
          0.4,
          1
        ],
        "emission": [
          0,
          0,
          0,
          1
        ],
        "specular": [
          0.1,
          0.1,
          0.1,
          1
        ],
        "shininess": 10,
        "transparency": 1
      },
      "technique": "technique0"
    },
    "material_boat1": {
      "name": "boat1",
      "extensions": {},
      "values": {
        "ambient": [
          0.5,
          0.5,
          0.5,
          1
        ],
        "diffuse": [
          0.5,
          0.5,
          0.5,
          1
        ],
        "emission": [
          0,
          0,
          0,
          1
        ],
        "specular": [
          0,
          0,
          0,
          1
        ],
        "shininess": 10,
        "transparency": 1
      },
      "technique": "technique0"
    },
    "material_,Black": {
      "name": ",Black",
      "extensions": {},
      "values": {
        "ambient": [
          0,
          0,
          0,
          1
        ],
        "diffuse": [
          0,
          0,
          0,
          1
        ],
        "emission": [
          0,
          0,
          0,
          1
        ],
        "specular": [
          0.1,
          0.1,
          0.1,
          1
        ],
        "shininess": 10,
        "transparency": 1
      },
      "technique": "technique0"
    },
    "material_orange": {
      "name": "orange",
      "extensions": {},
      "values": {
        "ambient": [
          0.7,
          0.5,
          0,
          1
        ],
        "diffuse": [
          0.7,
          0.5,
          0,
          1
        ],
        "emission": [
          0,
          0,
          0,
          1
        ],
        "specular": [
          0,
          0,
          0,
          1
        ],
        "shininess": 10,
        "transparency": 1
      },
      "technique": "technique0"
    },
    "material_Croco_,Black_1": {
      "name": "Croco_,Black_1",
      "extensions": {},
      "values": {
        "ambient": [
          0.3,
          0.1,
          0,
          1
        ],
        "diffuse": [
          0.3,
          0.1,
          0,
          1
        ],
        "emission": [
          0,
          0,
          0,
          1
        ],
        "specular": [
          0.1,
          0.1,
          0.1,
          1
        ],
        "shininess": 10,
        "transparency": 1
      },
      "technique": "technique0"
    },
    "material_orange+MASK": {
      "name": "orange+MASK",
      "extensions": {},
      "values": {
        "ambient": [
          0.7,
          0.5,
          0,
          1
        ],
        "diffuse": [
          0.7,
          0.5,
          0,
          1
        ],
        "emission": [
          0,
          0,
          0,
          1
        ],
        "specular": [
          0,
          0,
          0,
          1
        ],
        "shininess": 10,
        "transparency": 1
      },
      "technique": "technique0"
    },
    "material__": {
      "name": "_",
      "extensions": {},
      "values": {
        "ambient": [
          1,
          1,
          0.9,
          1
        ],
        "diffuse": [
          1,
          1,
          0.9,
          1
        ],
        "emission": [
          0,
          0,
          0,
          1
        ],
        "specular": [
          1,
          1,
          1,
          1
        ],
        "shininess": 2.9,
        "transparency": 1
      },
      "technique": "technique0"
    },
    "material_13_-_Default": {
      "name": "13_-_Default",
      "extensions": {},
      "values": {
        "ambient": [
          0.9,
          0.9,
          0.9,
          1
        ],
        "diffuse": [
          0.9,
          0.9,
          0.9,
          1
        ],
        "emission": [
          0,
          0,
          0,
          1
        ],
        "specular": [
          0,
          0,
          0,
          1
        ],
        "shininess": 10,
        "transparency": 1
      },
      "technique": "technique0"
    },
    "material_Material__54": {
      "name": "Material__54",
      "extensions": {},
      "values": {
        "ambient": [
          0.5,
          0.5,
          0.5,
          1
        ],
        "diffuse": [
          0.5,
          0.5,
          0.5,
          1
        ],
        "emission": [
          0,
          0,
          0,
          1
        ],
        "specular": [
          0,
          0,
          0,
          1
        ],
        "shininess": 10,
        "transparency": 1
      },
      "technique": "technique0"
    },
    "material_,Black_1": {
      "name": ",Black_1",
      "extensions": {},
      "values": {
        "ambient": [
          0,
          0,
          0,
          1
        ],
        "diffuse": [
          0,
          0,
          0,
          1
        ],
        "emission": [
          0,
          0,
          0,
          1
        ],
        "specular": [
          0.1,
          0.1,
          0.1,
          1
        ],
        "shininess": 10,
        "transparency": 1
      },
      "technique": "technique0"
    }
  },
  "meshes": {
    "mesh_model": {
      "name": "model",
      "primitives": [
        {
          "attributes": {
            "POSITION": "accessor_position",
            "NORMAL": "accessor_normal"
          },
          "indices": "accessor_index_0",
          "material": "material_1",
          "mode": 4
        },
        {
          "attributes": {
            "POSITION": "accessor_position",
            "NORMAL": "accessor_normal"
          },
          "indices": "accessor_index_1",
          "material": "material_boat",
          "mode": 4
        },
        {
          "attributes": {
            "POSITION": "accessor_position",
            "NORMAL": "accessor_normal"
          },
          "indices": "accessor_index_2",
          "material": "material_boat2",
          "mode": 4
        },
        {
          "attributes": {
            "POSITION": "accessor_position",
            "NORMAL": "accessor_normal"
          },
          "indices": "accessor_index_3",
          "material": "material_boat1",
          "mode": 4
        },
        {
          "attributes": {
            "POSITION": "accessor_position",
            "NORMAL": "accessor_normal"
          },
          "indices": "accessor_index_4",
          "material": "material_Croco_,Black_Ski",
          "mode": 4
        },
        {
          "attributes": {
            "POSITION": "accessor_position",
            "NORMAL": "accessor_normal"
          },
          "indices": "accessor_index_5",
          "material": "material_,Black",
          "mode": 4
        },
        {
          "attributes": {
            "POSITION": "accessor_position",
            "NORMAL": "accessor_normal"
          },
          "indices": "accessor_index_6",
          "material": "material_orange",
          "mode": 4
        },
        {
          "attributes": {
            "POSITION": "accessor_position",
            "NORMAL": "accessor_normal"
          },
          "indices": "accessor_index_7",
          "material": "material_Croco_,Black_1",
          "mode": 4
        },
        {
          "attributes": {
            "POSITION": "accessor_position",
            "NORMAL": "accessor_normal"
          },
          "indices": "accessor_index_8",
          "material": "material_orange+MASK",
          "mode": 4
        },
        {
          "attributes": {
            "POSITION": "accessor_position",
            "NORMAL": "accessor_normal"
          },
          "indices": "accessor_index_9",
          "material": "material__",
          "mode": 4
        },
        {
          "attributes": {
            "POSITION": "accessor_position",
            "NORMAL": "accessor_normal"
          },
          "indices": "accessor_index_10",
          "material": "material_13_-_Default",
          "mode": 4
        },
        {
          "attributes": {
            "POSITION": "accessor_position",
            "NORMAL": "accessor_normal"
          },
          "indices": "accessor_index_11",
          "material": "material_Material__54",
          "mode": 4
        },
        {
          "attributes": {
            "POSITION": "accessor_position",
            "NORMAL": "accessor_normal"
          },
          "indices": "accessor_index_12",
          "material": "material_,Black_1",
          "mode": 4
        }
      ]
    }
  },
  "nodes": {
    "rootNode": {
      "children": [],
      "meshes": [
        "mesh_model"
      ],
      "matrix": [
        1,
        0,
        0,
        0,
        0,
        1,
        0,
        0,
        0,
        0,
        1,
        0,
        0,
        0,
        0,
        1
      ]
    }
  },
  "samplers": {},
  "scene": "scene_model",
  "scenes": {
    "scene_model": {
      "nodes": [
        "rootNode"
      ]
    }
  },
  "textures": {},
  "extensionsUsed": [],
  "animations": {},
  "cameras": {},
  "techniques": {
    "technique0": {
      "attributes": {
        "a_position": "position",
        "a_normal": "normal"
      },
      "parameters": {
        "modelViewMatrix": {
          "semantic": "MODELVIEW",
          "type": 35676
        },
        "projectionMatrix": {
          "semantic": "PROJECTION",
          "type": 35676
        },
        "normalMatrix": {
          "semantic": "MODELVIEWINVERSETRANSPOSE",
          "type": 35675
        },
        "ambient": {
          "type": 35666
        },
        "diffuse": {
          "type": 35666
        },
        "emission": {
          "type": 35666
        },
        "specular": {
          "type": 35666
        },
        "shininess": {
          "type": 5126
        },
        "transparency": {
          "type": 5126
        },
        "position": {
          "semantic": "POSITION",
          "type": 35665
        },
        "normal": {
          "semantic": "NORMAL",
          "type": 35665
        }
      },
      "program": "program0",
      "states": {
        "enable": [
          2884,
          2929
        ]
      },
      "uniforms": {
        "u_modelViewMatrix": "modelViewMatrix",
        "u_projectionMatrix": "projectionMatrix",
        "u_normalMatrix": "normalMatrix",
        "u_ambient": "ambient",
        "u_diffuse": "diffuse",
        "u_emission": "emission",
        "u_specular": "specular",
        "u_shininess": "shininess",
        "u_transparency": "transparency"
      }
    }
  },
  "programs": {
    "program0": {
      "attributes": [
        "a_position",
        "a_normal"
      ],
      "fragmentShader": "fragmentShader0",
      "vertexShader": "vertexShader0"
    }
  },
  "shaders": {
    "vertexShader0": {
      "type": 35633,
      "uri": "data:text/plain;base64,"
    },
    "fragmentShader0": {
      "type": 35632,
      "uri": "data:text/plain;base64,"
    }
  },
  "skins": {},
  "extensions": {}
}
