{
  "accessors": {
    "accessor_index_0": {
      "bufferView": "bufferView_1",
      "byteOffset": 0,
      "byteStride": 0,
      "componentType": 5123,
      "count": 1164,
      "type": "SCALAR",
      "min": [
        0
      ],
      "max": [
        426
      ]
    },
    "accessor_index_1": {
      "bufferView": "bufferView_1",
      "byteOffset": 2328,
      "byteStride": 0,
      "componentType": 5123,
      "count": 864,
      "type": "SCALAR",
      "min": [
        427
      ],
      "max": [
        909
      ]
    },
    "accessor_index_2": {
      "bufferView": "bufferView_1",
      "byteOffset": 4056,
      "byteStride": 0,
      "componentType": 5123,
      "count": 1104,
      "type": "SCALAR",
      "min": [
        910
      ],
      "max": [
        1174
      ]
    },
    "accessor_index_3": {
      "bufferView": "bufferView_1",
      "byteOffset": 6264,
      "byteStride": 0,
      "componentType": 5123,
      "count": 96,
      "type": "SCALAR",
      "min": [
        1175
      ],
      "max": [
        1210
      ]
    },
    "accessor_index_4": {
      "bufferView": "bufferView_1",
      "byteOffset": 6456,
      "byteStride": 0,
      "componentType": 5123,
      "count": 219,
      "type": "SCALAR",
      "min": [
        1211
      ],
      "max": [
        1289
      ]
    },
    "accessor_index_5": {
      "bufferView": "bufferView_1",
      "byteOffset": 6894,
      "byteStride": 0,
      "componentType": 5123,
      "count": 7224,
      "type": "SCALAR",
      "min": [
        1290
      ],
      "max": [
        2805
      ]
    },
    "accessor_index_6": {
      "bufferView": "bufferView_1",
      "byteOffset": 21342,
      "byteStride": 0,
      "componentType": 5123,
      "count": 267,
      "type": "SCALAR",
      "min": [
        2806
      ],
      "max": [
        2885
      ]
    },
    "accessor_index_7": {
      "bufferView": "bufferView_1",
      "byteOffset": 21876,
      "byteStride": 0,
      "componentType": 5123,
      "count": 798,
      "type": "SCALAR",
      "min": [
        2886
      ],
      "max": [
        3095
      ]
    },
    "accessor_index_8": {
      "bufferView": "bufferView_1",
      "byteOffset": 23472,
      "byteStride": 0,
      "componentType": 5123,
      "count": 2958,
      "type": "SCALAR",
      "min": [
        3096
      ],
      "max": [
        3808
      ]
    },
    "accessor_position": {
      "bufferView": "bufferView_0",
      "byteOffset": 0,
      "byteStride": 0,
      "componentType": 5126,
      "count": 3809,
      "min": [
        -3.191512107849121,
        -0.00919399969279766,
        -1.1333379745483398
      ],
      "max": [
        3.1909940242767334,
        9.858875274658203,
        1.3120629787445068
      ],
      "type": "VEC3"
    },
    "accessor_normal": {
      "bufferView": "bufferView_0",
      "byteOffset": 45708,
      "byteStride": 0,
      "componentType": 5126,
      "count": 3809,
      "type": "VEC3",
      "min": [
        -0.9996446967124939,
        -0.9997556805610657,
        -0.9999635815620422
      ],
      "max": [
        0.999660849571228,
        0.9994417428970337,
        0.9999722838401794
      ]
    },
    "accessor_uv": {
      "bufferView": "bufferView_0",
      "byteOffset": 91416,
      "byteStride": 0,
      "componentType": 5126,
      "count": 3809,
      "type": "VEC2",
      "min": [
        0,
        -0.5147449970245361
      ],
      "max": [
        2.0952579975128174,
        1.9093899726867676
      ]
    }
  },
  "asset": {
    "generator": "OBJ2GLTF",
    "premultipliedAlpha": true,
    "profile": {
      "api": "WebGL",
      "version": "1.0"
    },
    "version": "1.0"
  },
  "buffers": {
    "buffer_0": {
      "type": "arraybuffer",
      "byteLength": 151276,
      "uri": "data:application/octet-stream;base64,"
    }
  },
  "bufferViews": {
    "bufferView_0": {
      "buffer": "buffer_0",
      "byteLength": 121888,
      "byteOffset": 0,
      "target": 34962
    },
    "bufferView_1": {
      "buffer": "buffer_0",
      "byteLength": 29388,
      "byteOffset": 121888,
      "target": 34963
    }
  },
  "images": {
    "mat 11 10 00": {
      "uri": "mat 11 10 00.png"
    },
    "mat 03": {
      "uri": "mat 03.png"
    },
    "mat 06": {
      "uri": "mat 06.png"
    },
    "mat 08": {
      "uri": "mat 08.png"
    },
    "mat 13": {
      "uri": "mat 13.png"
    },
    "mat 14": {
      "uri": "mat 14.png"
    },
    "mat 15": {
      "uri": "mat 15.png"
    }
  },
  "materials": {
    "material_mat_00": {
      "name": "mat_00",
      "extensions": {},
      "values": {
        "ambient": [
          0,
          0,
          0,
          1
        ],
        "diffuse": "texture_mat 11 10 00",
        "emission": [
          0,
          0,
          0,
          1
        ],
        "specular": [
          0.000784,
          0.000784,
          0.000784,
          1
        ],
        "shininess": 96.078431,
        "transparency": 1
      },
      "technique": "technique0"
    },
    "material_mat_03": {
      "name": "mat_03",
      "extensions": {},
      "values": {
        "ambient": [
          0,
          0,
          0,
          1
        ],
        "diffuse": "texture_mat 03",
        "emission": [
          0,
          0,
          0,
          1
        ],
        "specular": [
          0.000784,
          0.000784,
          0.000784,
          1
        ],
        "shininess": 96.078431,
        "transparency": 1
      },
      "technique": "technique0"
    },
    "material_mat_06": {
      "name": "mat_06",
      "extensions": {},
      "values": {
        "ambient": [
          0,
          0,
          0,
          1
        ],
        "diffuse": "texture_mat 06",
        "emission": [
          0,
          0,
          0,
          1
        ],
        "specular": [
          0.001961,
          0.001961,
          0.001961,
          1
        ],
        "shininess": 96.078431,
        "transparency": 1
      },
      "technique": "technique0"
    },
    "material_mat_08": {
      "name": "mat_08",
      "extensions": {},
      "values": {
        "ambient": [
          0,
          0,
          0,
          1
        ],
        "diffuse": "texture_mat 08",
        "emission": [
          0,
          0,
          0,
          1
        ],
        "specular": [
          0.001961,
          0.001961,
          0.001961,
          1
        ],
        "shininess": 96.078431,
        "transparency": 1
      },
      "technique": "technique1"
    },
    "material_mat_10": {
      "name": "mat_10",
      "extensions": {},
      "values": {
        "ambient": [
          0,
          0,
          0,
          1
        ],
        "diffuse": "texture_mat 11 10 00",
        "emission": [
          0,
          0,
          0,
          1
        ],
        "specular": [
          0.001961,
          0.001961,
          0.001961,
          1
        ],
        "shininess": 96.078431,
        "transparency": 1
      },
      "technique": "technique0"
    },
    "material_mat_11": {
      "name": "mat_11",
      "extensions": {},
      "values": {
        "ambient": [
          0,
          0,
          0,
          1
        ],
        "diffuse": "texture_mat 11 10 00",
        "emission": [
          0,
          0,
          0,
          1
        ],
        "specular": [
          0.001961,
          0.001961,
          0.001961,
          1
        ],
        "shininess": 96.078431,
        "transparency": 1
      },
      "technique": "technique0"
    },
    "material_mat_13": {
      "name": "mat_13",
      "extensions": {},
      "values": {
        "ambient": [
          0,
          0,
          0,
          1
        ],
        "diffuse": "texture_mat 13",
        "emission": [
          0,
          0,
          0,
          1
        ],
        "specular": [
          0.002745,
          0.002745,
          0.002745,
          1
        ],
        "shininess": 96.078431,
        "transparency": 1
      },
      "technique": "technique0"
    },
    "material_mat_14": {
      "name": "mat_14",
      "extensions": {},
      "values": {
        "ambient": [
          0,
          0,
          0,
          1
        ],
        "diffuse": "texture_mat 14",
        "emission": [
          0,
          0,
          0,
          1
        ],
        "specular": [
          0.000784,
          0.000784,
          0.000784,
          1
        ],
        "shininess": 96.078431,
        "transparency": 1
      },
      "technique": "technique0"
    },
    "material_mat_15": {
      "name": "mat_15",
      "extensions": {},
      "values": {
        "ambient": [
          0,
          0,
          0,
          1
        ],
        "diffuse": "texture_mat 15",
        "emission": [
          0,
          0,
          0,
          1
        ],
        "specular": [
          0.000784,
          0.000784,
          0.000784,
          1
        ],
        "shininess": 96.078431,
        "transparency": 1
      },
      "technique": "technique0"
    }
  },
  "meshes": {
    "mesh_model": {
      "name": "model",
      "primitives": [
        {
          "attributes": {
            "POSITION": "accessor_position",
            "NORMAL": "accessor_normal",
            "TEXCOORD_0": "accessor_uv"
          },
          "indices": "accessor_index_0",
          "material": "material_mat_15",
          "mode": 4
        },
        {
          "attributes": {
            "POSITION": "accessor_position",
            "NORMAL": "accessor_normal",
            "TEXCOORD_0": "accessor_uv"
          },
          "indices": "accessor_index_1",
          "material": "material_mat_14",
          "mode": 4
        },
        {
          "attributes": {
            "POSITION": "accessor_position",
            "NORMAL": "accessor_normal",
            "TEXCOORD_0": "accessor_uv"
          },
          "indices": "accessor_index_2",
          "material": "material_mat_13",
          "mode": 4
        },
        {
          "attributes": {
            "POSITION": "accessor_position",
            "NORMAL": "accessor_normal",
            "TEXCOORD_0": "accessor_uv"
          },
          "indices": "accessor_index_3",
          "material": "material_mat_11",
          "mode": 4
        },
        {
          "attributes": {
            "POSITION": "accessor_position",
            "NORMAL": "accessor_normal",
            "TEXCOORD_0": "accessor_uv"
          },
          "indices": "accessor_index_4",
          "material": "material_mat_10",
          "mode": 4
        },
        {
          "attributes": {
            "POSITION": "accessor_position",
            "NORMAL": "accessor_normal",
            "TEXCOORD_0": "accessor_uv"
          },
          "indices": "accessor_index_5",
          "material": "material_mat_00",
          "mode": 4
        },
        {
          "attributes": {
            "POSITION": "accessor_position",
            "NORMAL": "accessor_normal",
            "TEXCOORD_0": "accessor_uv"
          },
          "indices": "accessor_index_6",
          "material": "material_mat_08",
          "mode": 4
        },
        {
          "attributes": {
            "POSITION": "accessor_position",
            "NORMAL": "accessor_normal",
            "TEXCOORD_0": "accessor_uv"
          },
          "indices": "accessor_index_7",
          "material": "material_mat_06",
          "mode": 4
        },
        {
          "attributes": {
            "POSITION": "accessor_position",
            "NORMAL": "accessor_normal",
            "TEXCOORD_0": "accessor_uv"
          },
          "indices": "accessor_index_8",
          "material": "material_mat_03",
          "mode": 4
        }
      ]
    }
  },
  "nodes": {
    "rootNode": {
      "children": [],
      "meshes": [
        "mesh_model"
      ],
      "matrix": [
        1,
        0,
        0,
        0,
        0,
        1,
        0,
        0,
        0,
        0,
        1,
        0,
        0,
        0,
        0,
        1
      ]
    }
  },
  "samplers": {
    "sampler_0": {
      "magFilter": 9729,
      "minFilter": 9986,
      "wrapS": 10497,
      "wrapT": 10497
    }
  },
  "scene": "scene_model",
  "scenes": {
    "scene_model": {
      "nodes": [
        "rootNode"
      ]
    }
  },
  "textures": {
    "texture_mat 11 10 00": {
      "format": 6407,
      "internalFormat": 6407,
      "sampler": "sampler_0",
      "source": "mat 11 10 00",
      "target": 3553,
      "type": 5121
    },
    "texture_mat 03": {
      "format": 6407,
      "internalFormat": 6407,
      "sampler": "sampler_0",
      "source": "mat 03",
      "target": 3553,
      "type": 5121
    },
    "texture_mat 06": {
      "format": 6407,
      "internalFormat": 6407,
      "sampler": "sampler_0",
      "source": "mat 06",
      "target": 3553,
      "type": 5121
    },
    "texture_mat 08": {
      "format": 6407,
      "internalFormat": 6407,
      "sampler": "sampler_0",
      "source": "mat 08",
      "target": 3553,
      "type": 5121
    },
    "texture_mat 13": {
      "format": 6407,
      "internalFormat": 6407,
      "sampler": "sampler_0",
      "source": "mat 13",
      "target": 3553,
      "type": 5121
    },
    "texture_mat 14": {
      "format": 6407,
      "internalFormat": 6407,
      "sampler": "sampler_0",
      "source": "mat 14",
      "target": 3553,
      "type": 5121
    },
    "texture_mat 15": {
      "format": 6407,
      "internalFormat": 6407,
      "sampler": "sampler_0",
      "source": "mat 15",
      "target": 3553,
      "type": 5121
    }
  },
  "extensionsUsed": [],
  "animations": {},
  "cameras": {},
  "techniques": {
    "technique0": {
      "attributes": {
        "a_position": "position",
        "a_normal": "normal",
        "a_texcoord_0": "texcoord_0"
      },
      "parameters": {
        "modelViewMatrix": {
          "semantic": "MODELVIEW",
          "type": 35676
        },
        "projectionMatrix": {
          "semantic": "PROJECTION",
          "type": 35676
        },
        "normalMatrix": {
          "semantic": "MODELVIEWINVERSETRANSPOSE",
          "type": 35675
        },
        "ambient": {
          "type": 35666
        },
        "diffuse": {
          "type": 35678
        },
        "emission": {
          "type": 35666
        },
        "specular": {
          "type": 35666
        },
        "shininess": {
          "type": 5126
        },
        "transparency": {
          "type": 5126
        },
        "position": {
          "semantic": "POSITION",
          "type": 35665
        },
        "normal": {
          "semantic": "NORMAL",
          "type": 35665
        },
        "texcoord_0": {
          "semantic": "TEXCOORD_0",
          "type": 35664
        }
      },
      "program": "program0",
      "states": {
        "enable": [
          2884,
          2929
        ]
      },
      "uniforms": {
        "u_modelViewMatrix": "modelViewMatrix",
        "u_projectionMatrix": "projectionMatrix",
        "u_normalMatrix": "normalMatrix",
        "u_ambient": "ambient",
        "u_diffuse": "diffuse",
        "u_emission": "emission",
        "u_specular": "specular",
        "u_shininess": "shininess",
        "u_transparency": "transparency"
      }
    },
    "technique1": {
      "attributes": {
        "a_position": "position",
        "a_normal": "normal",
        "a_texcoord_0": "texcoord_0"
      },
      "parameters": {
        "modelViewMatrix": {
          "semantic": "MODELVIEW",
          "type": 35676
        },
        "projectionMatrix": {
          "semantic": "PROJECTION",
          "type": 35676
        },
        "normalMatrix": {
          "semantic": "MODELVIEWINVERSETRANSPOSE",
          "type": 35675
        },
        "ambient": {
          "type": 35666
        },
        "diffuse": {
          "type": 35678
        },
        "emission": {
          "type": 35666
        },
        "specular": {
          "type": 35666
        },
        "shininess": {
          "type": 5126
        },
        "transparency": {
          "type": 5126
        },
        "position": {
          "semantic": "POSITION",
          "type": 35665
        },
        "normal": {
          "semantic": "NORMAL",
          "type": 35665
        },
        "texcoord_0": {
          "semantic": "TEXCOORD_0",
          "type": 35664
        }
      },
      "program": "program1",
      "states": {
        "enable": [
          2929,
          3042
        ],
        "depthMask": false,
        "functions": {
          "blendEquationSeparate": [
            32774,
            32774
          ],
          "blendFuncSeparate": [
            1,
            771,
            1,
            771
          ]
        }
      },
      "uniforms": {
        "u_modelViewMatrix": "modelViewMatrix",
        "u_projectionMatrix": "projectionMatrix",
        "u_normalMatrix": "normalMatrix",
        "u_ambient": "ambient",
        "u_diffuse": "diffuse",
        "u_emission": "emission",
        "u_specular": "specular",
        "u_shininess": "shininess",
        "u_transparency": "transparency"
      }
    }
  },
  "programs": {
    "program0": {
      "attributes": [
        "a_position",
        "a_normal",
        "a_texcoord_0"
      ],
      "fragmentShader": "fragmentShader0",
      "vertexShader": "vertexShader0"
    },
    "program1": {
      "attributes": [
        "a_position",
        "a_normal",
        "a_texcoord_0"
      ],
      "fragmentShader": "fragmentShader1",
      "vertexShader": "vertexShader1"
    }
  },
  "shaders": {
    "vertexShader0": {
      "type": 35633,
      "uri": "data:text/plain;base64,"
    },
    "fragmentShader0": {
      "type": 35632,
      "uri": "data:text/plain;base64,"
    },
    "vertexShader1": {
      "type": 35633,
      "uri": "data:text/plain;base64,"
    },
    "fragmentShader1": {
      "type": 35632,
      "uri": "data:text/plain;base64,"
    }
  },
  "skins": {},
  "extensions": {}
}
