<?xml version="1.0" encoding="iso-8859-1"?>
<!-- Generator: Adobe Illustrator 16.0.0, SVG Export Plug-In . SVG Version: 6.00 Build 0)  -->
<!DOCTYPE svg PUBLIC "-//W3C//DTD SVG 1.1//EN" "http://www.w3.org/Graphics/SVG/1.1/DTD/svg11.dtd">
<svg xmlns="http://www.w3.org/2000/svg" xmlns:xlink="http://www.w3.org/1999/xlink" version="1.1" id="Capa_1" x="0px" y="0px" width="512px" height="512px" viewBox="0 0 192.785 192.785" style="enable-background:new 0 0 192.785 192.785;" xml:space="preserve">
<g>
	<g>
		<path d="M24.811,40.577c-1.045-8.174-1.893-16.377-3.213-24.512c-0.738-4.55-8.571-4.627-9.23,0    C10.929,26.168,8.239,34.241,1.867,42.354c-2.602,3.312,1.415,7.587,4.693,4.694c3.284-2.899,5.951-6.371,8.148-10.149    c0.217,1.887,0.43,3.777,0.661,5.661c0.608,4.939,0.092,13.621,5.226,16.268c1.777,0.917,3.998,0.484,5.042-1.321    C28.286,52.923,25.438,45.482,24.811,40.577z" fill="#FFFFFF"/>
		<path d="M178.969,39.121c-13.678,6.403-37.439,0.269-51.566-1.444c-19.959-2.421-40.974-7.972-61.165-7.652    c-4.113,0.065-5.21,6.428-0.992,7.328c23.63,5.043,47.943,8.743,71.887,11.922c9.306,1.236,44.788,10.024,48.226-5.242    C186.24,40.114,182.425,37.502,178.969,39.121z" fill="#FFFFFF"/>
		<path d="M29.673,111.037c-3.299-2.033-7.405-1.352-11.143-1.337c-1.525,0.007-3.051,0.024-4.576,0.03    c4.009-4.63,7.664-9.717,9.5-15.228c1.073-3.22,0.566-7.16-2.712-8.842c-4.382-2.247-10.276,0.41-14.29,2.235    c-2.98,1.355-0.81,5.822,2.152,5.103c1.965-0.476,3.958-1.026,5.966-1.291c0.502-0.066,1.432,0.107,1.985,0.075    c-0.593,1.108-1.952,3.532-2.401,4.237c-3.528,5.54-8.253,10.438-12.929,15.015c-2.676,2.618-0.646,7.162,2.988,7.214    c4.226,0.061,8.452,0.071,12.679,0.088c4.139,0.016,9.124,0.924,12.781-1.33C31.907,115.629,31.907,112.414,29.673,111.037z" fill="#FFFFFF"/>
		<path d="M178.072,104.478c-12.138-8.492-32.913-7.422-47.087-8.019c-22.683-0.955-45.745-0.466-68.395,1.063    c-4.801,0.324-4.813,7.16,0,7.461c18.698,1.172,37.496,0.865,56.219,1.619c19.174,0.774,38.018,5.823,56.884,6.662    C180.73,113.487,181.647,106.979,178.072,104.478z" fill="#FFFFFF"/>
		<path d="M32.804,161.255c-1.541-2.397-4.034-3.718-6.784-4.466c-0.093-0.3-0.236-0.559-0.422-0.808    c-1.024-5.293-3.485-12.052-9.525-12.899c-5.472-0.769-9.235,3.775-10.462,8.628c-0.661,2.611,2.841,4.019,4.267,1.799    c0.956-1.488,2.925-4.741,5.135-4.327c2.223,0.417,3.189,3.7,3.657,6.294c-0.945,0.157-1.961,0.307-2.697,0.487    c-4.255,1.036-3.211,7.377,1.01,7.465c2.871,0.061,7.202-0.105,9.391,2.167c-0.056-0.058-0.62,1.427-1.506,2.354    c-3.993,4.178-8.311,3.227-13.357,2.61c-2.74-0.335-4.595,3.366-3.163,5.51c5.675,8.492,18.854,2.115,23.508-4.188    C34.143,168.783,34.986,164.649,32.804,161.255z" fill="#FFFFFF"/>
		<path d="M192.514,172.467c-1.639-4.184-4.075-5.841-8.842-5.876c-14.744-0.108-29.334-1.317-44.102-1.479    c-25.287-0.277-56.911-6.557-81.301,1.209c-2.4,0.766-2.399,4.092,0,4.856c16.731,5.336,37.852,2.799,55.31,3.574    c11.25,0.5,22.383,1.256,33.651,1.432c7.958,0.125,30.111,6.491,34.221-2.101c-1.423,2.976,0.891,6.677,4.395,5.716    c0.989-0.271,1.979-0.543,2.967-0.813C191.38,178.28,193.569,175.157,192.514,172.467z" fill="#FFFFFF"/>
	</g>
</g>
<g>
</g>
<g>
</g>
<g>
</g>
<g>
</g>
<g>
</g>
<g>
</g>
<g>
</g>
<g>
</g>
<g>
</g>
<g>
</g>
<g>
</g>
<g>
</g>
<g>
</g>
<g>
</g>
<g>
</g>
</svg>
