{
  "accessors": {
    "accessor_index_0": {
      "bufferView": "bufferView_1",
      "byteOffset": 0,
      "byteStride": 0,
      "componentType": 5123,
      "count": 18,
      "type": "SCALAR",
      "min": [
        0
      ],
      "max": [
        3452
      ]
    },
    "accessor_index_1": {
      "bufferView": "bufferView_1",
      "byteOffset": 36,
      "byteStride": 0,
      "componentType": 5123,
      "count": 72,
      "type": "SCALAR",
      "min": [
        4
      ],
      "max": [
        14424
      ]
    },
    "accessor_index_2": {
      "bufferView": "bufferView_1",
      "byteOffset": 180,
      "byteStride": 0,
      "componentType": 5123,
      "count": 276,
      "type": "SCALAR",
      "min": [
        16
      ],
      "max": [
        119
      ]
    },
    "accessor_index_3": {
      "bufferView": "bufferView_1",
      "byteOffset": 732,
      "byteStride": 0,
      "componentType": 5123,
      "count": 576,
      "type": "SCALAR",
      "min": [
        124
      ],
      "max": [
        289
      ]
    },
    "accessor_index_4": {
      "bufferView": "bufferView_1",
      "byteOffset": 1884,
      "byteStride": 0,
      "componentType": 5123,
      "count": 300,
      "type": "SCALAR",
      "min": [
        290
      ],
      "max": [
        14432
      ]
    },
    "accessor_index_5": {
      "bufferView": "bufferView_1",
      "byteOffset": 2484,
      "byteStride": 0,
      "componentType": 5123,
      "count": 5166,
      "type": "SCALAR",
      "min": [
        298
      ],
      "max": [
        14472
      ]
    },
    "accessor_index_6": {
      "bufferView": "bufferView_1",
      "byteOffset": 12816,
      "byteStride": 0,
      "componentType": 5123,
      "count": 48,
      "type": "SCALAR",
      "min": [
        338
      ],
      "max": [
        14420
      ]
    },
    "accessor_index_7": {
      "bufferView": "bufferView_1",
      "byteOffset": 12912,
      "byteStride": 0,
      "componentType": 5123,
      "count": 25014,
      "type": "SCALAR",
      "min": [
        354
      ],
      "max": [
        14404
      ]
    },
    "accessor_index_8": {
      "bufferView": "bufferView_1",
      "byteOffset": 62940,
      "byteStride": 0,
      "componentType": 5123,
      "count": 60,
      "type": "SCALAR",
      "min": [
        2990
      ],
      "max": [
        3472
      ]
    },
    "accessor_index_9": {
      "bufferView": "bufferView_1",
      "byteOffset": 63060,
      "byteStride": 0,
      "componentType": 5123,
      "count": 198,
      "type": "SCALAR",
      "min": [
        2998
      ],
      "max": [
        3089
      ]
    },
    "accessor_index_10": {
      "bufferView": "bufferView_1",
      "byteOffset": 63456,
      "byteStride": 0,
      "componentType": 5123,
      "count": 36,
      "type": "SCALAR",
      "min": [
        4089
      ],
      "max": [
        4112
      ]
    },
    "accessor_index_11": {
      "bufferView": "bufferView_1",
      "byteOffset": 63528,
      "byteStride": 0,
      "componentType": 5123,
      "count": 96,
      "type": "SCALAR",
      "min": [
        4113
      ],
      "max": [
        4176
      ]
    },
    "accessor_index_12": {
      "bufferView": "bufferView_1",
      "byteOffset": 63720,
      "byteStride": 0,
      "componentType": 5123,
      "count": 1056,
      "type": "SCALAR",
      "min": [
        4437
      ],
      "max": [
        5140
      ]
    },
    "accessor_index_13": {
      "bufferView": "bufferView_1",
      "byteOffset": 65832,
      "byteStride": 0,
      "componentType": 5123,
      "count": 2376,
      "type": "SCALAR",
      "min": [
        5141
      ],
      "max": [
        6724
      ]
    },
    "accessor_index_14": {
      "bufferView": "bufferView_1",
      "byteOffset": 70584,
      "byteStride": 0,
      "componentType": 5123,
      "count": 246,
      "type": "SCALAR",
      "min": [
        6725
      ],
      "max": [
        6812
      ]
    },
    "accessor_index_15": {
      "bufferView": "bufferView_1",
      "byteOffset": 71076,
      "byteStride": 0,
      "componentType": 5123,
      "count": 72,
      "type": "SCALAR",
      "min": [
        6813
      ],
      "max": [
        6853
      ]
    },
    "accessor_position": {
      "bufferView": "bufferView_0",
      "byteOffset": 0,
      "byteStride": 0,
      "componentType": 5126,
      "count": 14473,
      "min": [
        -7.755382061004639,
        -1.118327021598816,
        -5.833637237548828
      ],
      "max": [
        7.335907936096191,
        8.675943374633789,
        4.295055866241455
      ],
      "type": "VEC3"
    },
    "accessor_normal": {
      "bufferView": "bufferView_0",
      "byteOffset": 173676,
      "byteStride": 0,
      "componentType": 5126,
      "count": 14473,
      "type": "VEC3",
      "min": [
        -1,
        -1,
        -1
      ],
      "max": [
        1,
        1,
        1
      ]
    },
    "accessor_uv": {
      "bufferView": "bufferView_0",
      "byteOffset": 347352,
      "byteStride": 0,
      "componentType": 5126,
      "count": 14473,
      "type": "VEC2",
      "min": [
        -1.2614669799804688,
        -1.1817859411239624
      ],
      "max": [
        2.2614669799804688,
        2.6662709712982178
      ]
    }
  },
  "asset": {
    "generator": "OBJ2GLTF",
    "premultipliedAlpha": true,
    "profile": {
      "api": "WebGL",
      "version": "1.0"
    },
    "version": "1.0"
  },
  "buffers": {
    "buffer_0": {
      "type": "arraybuffer",
      "byteLength": 534356,
      "uri": "data:application/octet-stream;base64,"
    }
  },
  "bufferViews": {
    "bufferView_0": {
      "buffer": "buffer_0",
      "byteLength": 463136,
      "byteOffset": 0,
      "target": 34962
    },
    "bufferView_1": {
      "buffer": "buffer_0",
      "byteLength": 71220,
      "byteOffset": 463136,
      "target": 34963
    }
  },
  "images": {
    "GreyBricks2": {
      "uri": "GreyBricks2.jpeg"
    },
    "DoorType1_2": {
      "uri": "DoorType1_2.jpeg"
    },
    "Stone": {
      "uri": "Stone.jpeg"
    },
    "TreeLogEdgeWeathered": {
      "uri": "TreeLogEdgeWeathered.jpeg"
    },
    "PlasterLarge": {
      "uri": "PlasterLarge.jpeg"
    },
    "RoofTiles": {
      "uri": "RoofTiles.jpeg"
    },
    "Rusted Metal": {
      "uri": "Rusted Metal.jpeg"
    },
    "WindowBlue1": {
      "uri": "WindowBlue1.jpeg"
    },
    "WindowsBlue2": {
      "uri": "WindowsBlue2.jpeg"
    },
    "Wood": {
      "uri": "Wood.jpeg"
    }
  },
  "materials": {
    "material_Brick__GreyBricks_jpg": {
      "name": "Brick__GreyBricks_jpg",
      "extensions": {},
      "values": {
        "ambient": [
          0,
          0,
          0,
          1
        ],
        "diffuse": "texture_GreyBricks2",
        "emission": [
          0,
          0,
          0,
          1
        ],
        "specular": [
          0.034118,
          0.034118,
          0.034118,
          1
        ],
        "shininess": 96.078431,
        "transparency": 1
      },
      "technique": "technique0"
    },
    "material_DoorType1_2__DoorType1_2_jpg": {
      "name": "DoorType1_2__DoorType1_2_jpg",
      "extensions": {},
      "values": {
        "ambient": [
          0,
          0,
          0,
          1
        ],
        "diffuse": "texture_DoorType1_2",
        "emission": [
          0,
          0,
          0,
          1
        ],
        "specular": [
          0.04,
          0.04,
          0.04,
          1
        ],
        "shininess": 96.078431,
        "transparency": 1
      },
      "technique": "technique0"
    },
    "material_GreyBrick2__GreyBricks2_jpg": {
      "name": "GreyBrick2__GreyBricks2_jpg",
      "extensions": {},
      "values": {
        "ambient": [
          0,
          0,
          0,
          1
        ],
        "diffuse": "texture_GreyBricks2",
        "emission": [
          0,
          0,
          0,
          1
        ],
        "specular": [
          0.073333,
          0.073333,
          0.073333,
          1
        ],
        "shininess": 96.078431,
        "transparency": 1
      },
      "technique": "technique0"
    },
    "material_GreyStone2__GreyStone2_jpg": {
      "name": "GreyStone2__GreyStone2_jpg",
      "extensions": {},
      "values": {
        "ambient": [
          0,
          0,
          0,
          1
        ],
        "diffuse": "texture_Stone",
        "emission": [
          0,
          0,
          0,
          1
        ],
        "specular": [
          0.034118,
          0.034118,
          0.034118,
          1
        ],
        "shininess": 96.078431,
        "transparency": 1
      },
      "technique": "technique0"
    },
    "material_LogEdgeWeathered__TreeLogEdgeWeathered_jpg": {
      "name": "LogEdgeWeathered__TreeLogEdgeWeathered_jpg",
      "extensions": {},
      "values": {
        "ambient": [
          0,
          0,
          0,
          1
        ],
        "diffuse": "texture_TreeLogEdgeWeathered",
        "emission": [
          0,
          0,
          0,
          1
        ],
        "specular": [
          0.055686,
          0.055686,
          0.055686,
          1
        ],
        "shininess": 96.078431,
        "transparency": 1
      },
      "technique": "technique0"
    },
    "material_LogEdgeWeathered__Wood_jpg": {
      "name": "LogEdgeWeathered__Wood_jpg",
      "extensions": {},
      "values": {
        "ambient": [
          0,
          0,
          0,
          1
        ],
        "diffuse": "texture_TreeLogEdgeWeathered",
        "emission": [
          0,
          0,
          0,
          1
        ],
        "specular": [
          0.062353,
          0.062353,
          0.062353,
          1
        ],
        "shininess": 96.078431,
        "transparency": 1
      },
      "technique": "technique0"
    },
    "material_LogEdgeWeathered__Wood_jpg_002": {
      "name": "LogEdgeWeathered__Wood_jpg_002",
      "extensions": {},
      "values": {
        "ambient": [
          0,
          0,
          0,
          1
        ],
        "diffuse": "texture_TreeLogEdgeWeathered",
        "emission": [
          0,
          0,
          0,
          1
        ],
        "specular": [
          0.057255,
          0.057255,
          0.057255,
          1
        ],
        "shininess": 96.078431,
        "transparency": 1
      },
      "technique": "technique0"
    },
    "material_Plaster__PlasterLarge_jpg": {
      "name": "Plaster__PlasterLarge_jpg",
      "extensions": {},
      "values": {
        "ambient": [
          0,
          0,
          0,
          1
        ],
        "diffuse": "texture_PlasterLarge",
        "emission": [
          0,
          0,
          0,
          1
        ],
        "specular": [
          0.04902,
          0.04902,
          0.04902,
          1
        ],
        "shininess": 96.078431,
        "transparency": 1
      },
      "technique": "technique0"
    },
    "material_RoofTiles__RoofTiles_jpg": {
      "name": "RoofTiles__RoofTiles_jpg",
      "extensions": {},
      "values": {
        "ambient": [
          0,
          0,
          0,
          1
        ],
        "diffuse": "texture_RoofTiles",
        "emission": [
          0,
          0,
          0,
          1
        ],
        "specular": [
          0.075686,
          0.075686,
          0.075686,
          1
        ],
        "shininess": 96.078431,
        "transparency": 1
      },
      "technique": "technique0"
    },
    "material_RustedMetal__Rusted_Metal_jpg": {
      "name": "RustedMetal__Rusted_Metal_jpg",
      "extensions": {},
      "values": {
        "ambient": [
          0,
          0,
          0,
          1
        ],
        "diffuse": "texture_Rusted Metal",
        "emission": [
          0,
          0,
          0,
          1
        ],
        "specular": [
          0.1,
          0.1,
          0.1,
          1
        ],
        "shininess": 96.078431,
        "transparency": 1
      },
      "technique": "technique0"
    },
    "material_Stone__Stone_jpg": {
      "name": "Stone__Stone_jpg",
      "extensions": {},
      "values": {
        "ambient": [
          0,
          0,
          0,
          1
        ],
        "diffuse": "texture_Stone",
        "emission": [
          0,
          0,
          0,
          1
        ],
        "specular": [
          0.039216,
          0.039216,
          0.039216,
          1
        ],
        "shininess": 96.078431,
        "transparency": 1
      },
      "technique": "technique0"
    },
    "material_WindowBlue1__WindowBlue1": {
      "name": "WindowBlue1__WindowBlue1",
      "extensions": {},
      "values": {
        "ambient": [
          0,
          0,
          0,
          1
        ],
        "diffuse": "texture_WindowBlue1",
        "emission": [
          0,
          0,
          0,
          1
        ],
        "specular": [
          0.1,
          0.1,
          0.1,
          1
        ],
        "shininess": 96.078431,
        "transparency": 1
      },
      "technique": "technique0"
    },
    "material_WindowBlue2__WindowsBlue2_jpg": {
      "name": "WindowBlue2__WindowsBlue2_jpg",
      "extensions": {},
      "values": {
        "ambient": [
          0,
          0,
          0,
          1
        ],
        "diffuse": "texture_WindowsBlue2",
        "emission": [
          0,
          0,
          0,
          1
        ],
        "specular": [
          0.1,
          0.1,
          0.1,
          1
        ],
        "shininess": 96.078431,
        "transparency": 1
      },
      "technique": "technique0"
    },
    "material_Wood_001": {
      "name": "Wood_001",
      "extensions": {},
      "values": {
        "ambient": [
          0,
          0,
          0,
          1
        ],
        "diffuse": "texture_Wood",
        "emission": [
          0,
          0,
          0,
          1
        ],
        "specular": [
          0.051373,
          0.051373,
          0.051373,
          1
        ],
        "shininess": 96.078431,
        "transparency": 1
      },
      "technique": "technique0"
    },
    "material_Wood_001__Wood_jpg": {
      "name": "Wood_001__Wood_jpg",
      "extensions": {},
      "values": {
        "ambient": [
          0,
          0,
          0,
          1
        ],
        "diffuse": "texture_Wood",
        "emission": [
          0,
          0,
          0,
          1
        ],
        "specular": [
          0.036078,
          0.036078,
          0.036078,
          1
        ],
        "shininess": 96.078431,
        "transparency": 1
      },
      "technique": "technique0"
    },
    "material_Wood__Wood_jpg": {
      "name": "Wood__Wood_jpg",
      "extensions": {},
      "values": {
        "ambient": [
          0,
          0,
          0,
          1
        ],
        "diffuse": "texture_Wood",
        "emission": [
          0,
          0,
          0,
          1
        ],
        "specular": [
          0.04,
          0.04,
          0.04,
          1
        ],
        "shininess": 96.078431,
        "transparency": 1
      },
      "technique": "technique0"
    }
  },
  "meshes": {
    "mesh_model": {
      "name": "model",
      "primitives": [
        {
          "attributes": {
            "POSITION": "accessor_position",
            "NORMAL": "accessor_normal",
            "TEXCOORD_0": "accessor_uv"
          },
          "indices": "accessor_index_0",
          "material": "material_DoorType1_2__DoorType1_2_jpg",
          "mode": 4
        },
        {
          "attributes": {
            "POSITION": "accessor_position",
            "NORMAL": "accessor_normal",
            "TEXCOORD_0": "accessor_uv"
          },
          "indices": "accessor_index_1",
          "material": "material_WindowBlue1__WindowBlue1",
          "mode": 4
        },
        {
          "attributes": {
            "POSITION": "accessor_position",
            "NORMAL": "accessor_normal",
            "TEXCOORD_0": "accessor_uv"
          },
          "indices": "accessor_index_2",
          "material": "material_GreyBrick2__GreyBricks2_jpg",
          "mode": 4
        },
        {
          "attributes": {
            "POSITION": "accessor_position",
            "NORMAL": "accessor_normal",
            "TEXCOORD_0": "accessor_uv"
          },
          "indices": "accessor_index_3",
          "material": "material_RoofTiles__RoofTiles_jpg",
          "mode": 4
        },
        {
          "attributes": {
            "POSITION": "accessor_position",
            "NORMAL": "accessor_normal",
            "TEXCOORD_0": "accessor_uv"
          },
          "indices": "accessor_index_4",
          "material": "material_LogEdgeWeathered__TreeLogEdgeWeathered_jpg",
          "mode": 4
        },
        {
          "attributes": {
            "POSITION": "accessor_position",
            "NORMAL": "accessor_normal",
            "TEXCOORD_0": "accessor_uv"
          },
          "indices": "accessor_index_5",
          "material": "material_Wood__Wood_jpg",
          "mode": 4
        },
        {
          "attributes": {
            "POSITION": "accessor_position",
            "NORMAL": "accessor_normal",
            "TEXCOORD_0": "accessor_uv"
          },
          "indices": "accessor_index_6",
          "material": "material_Stone__Stone_jpg",
          "mode": 4
        },
        {
          "attributes": {
            "POSITION": "accessor_position",
            "NORMAL": "accessor_normal",
            "TEXCOORD_0": "accessor_uv"
          },
          "indices": "accessor_index_7",
          "material": "material_RustedMetal__Rusted_Metal_jpg",
          "mode": 4
        },
        {
          "attributes": {
            "POSITION": "accessor_position",
            "NORMAL": "accessor_normal",
            "TEXCOORD_0": "accessor_uv"
          },
          "indices": "accessor_index_8",
          "material": "material_WindowBlue2__WindowsBlue2_jpg",
          "mode": 4
        },
        {
          "attributes": {
            "POSITION": "accessor_position",
            "NORMAL": "accessor_normal",
            "TEXCOORD_0": "accessor_uv"
          },
          "indices": "accessor_index_9",
          "material": "material_Brick__GreyBricks_jpg",
          "mode": 4
        },
        {
          "attributes": {
            "POSITION": "accessor_position",
            "NORMAL": "accessor_normal",
            "TEXCOORD_0": "accessor_uv"
          },
          "indices": "accessor_index_10",
          "material": "material_LogEdgeWeathered__Wood_jpg",
          "mode": 4
        },
        {
          "attributes": {
            "POSITION": "accessor_position",
            "NORMAL": "accessor_normal",
            "TEXCOORD_0": "accessor_uv"
          },
          "indices": "accessor_index_11",
          "material": "material_LogEdgeWeathered__Wood_jpg_002",
          "mode": 4
        },
        {
          "attributes": {
            "POSITION": "accessor_position",
            "NORMAL": "accessor_normal",
            "TEXCOORD_0": "accessor_uv"
          },
          "indices": "accessor_index_12",
          "material": "material_Wood_001",
          "mode": 4
        },
        {
          "attributes": {
            "POSITION": "accessor_position",
            "NORMAL": "accessor_normal",
            "TEXCOORD_0": "accessor_uv"
          },
          "indices": "accessor_index_13",
          "material": "material_Wood_001__Wood_jpg",
          "mode": 4
        },
        {
          "attributes": {
            "POSITION": "accessor_position",
            "NORMAL": "accessor_normal",
            "TEXCOORD_0": "accessor_uv"
          },
          "indices": "accessor_index_14",
          "material": "material_Plaster__PlasterLarge_jpg",
          "mode": 4
        },
        {
          "attributes": {
            "POSITION": "accessor_position",
            "NORMAL": "accessor_normal",
            "TEXCOORD_0": "accessor_uv"
          },
          "indices": "accessor_index_15",
          "material": "material_GreyStone2__GreyStone2_jpg",
          "mode": 4
        }
      ]
    }
  },
  "nodes": {
    "rootNode": {
      "children": [],
      "meshes": [
        "mesh_model"
      ],
      "matrix": [
        1,
        0,
        0,
        0,
        0,
        1,
        0,
        0,
        0,
        0,
        1,
        0,
        0,
        0,
        0,
        1
      ]
    }
  },
  "samplers": {
    "sampler_0": {
      "magFilter": 9729,
      "minFilter": 9986,
      "wrapS": 10497,
      "wrapT": 10497
    }
  },
  "scene": "scene_model",
  "scenes": {
    "scene_model": {
      "nodes": [
        "rootNode"
      ]
    }
  },
  "textures": {
    "texture_GreyBricks2": {
      "format": 6407,
      "internalFormat": 6407,
      "sampler": "sampler_0",
      "source": "GreyBricks2",
      "target": 3553,
      "type": 5121
    },
    "texture_DoorType1_2": {
      "format": 6407,
      "internalFormat": 6407,
      "sampler": "sampler_0",
      "source": "DoorType1_2",
      "target": 3553,
      "type": 5121
    },
    "texture_Stone": {
      "format": 6407,
      "internalFormat": 6407,
      "sampler": "sampler_0",
      "source": "Stone",
      "target": 3553,
      "type": 5121
    },
    "texture_TreeLogEdgeWeathered": {
      "format": 6407,
      "internalFormat": 6407,
      "sampler": "sampler_0",
      "source": "TreeLogEdgeWeathered",
      "target": 3553,
      "type": 5121
    },
    "texture_PlasterLarge": {
      "format": 6407,
      "internalFormat": 6407,
      "sampler": "sampler_0",
      "source": "PlasterLarge",
      "target": 3553,
      "type": 5121
    },
    "texture_RoofTiles": {
      "format": 6407,
      "internalFormat": 6407,
      "sampler": "sampler_0",
      "source": "RoofTiles",
      "target": 3553,
      "type": 5121
    },
    "texture_Rusted Metal": {
      "format": 6407,
      "internalFormat": 6407,
      "sampler": "sampler_0",
      "source": "Rusted Metal",
      "target": 3553,
      "type": 5121
    },
    "texture_WindowBlue1": {
      "format": 6407,
      "internalFormat": 6407,
      "sampler": "sampler_0",
      "source": "WindowBlue1",
      "target": 3553,
      "type": 5121
    },
    "texture_WindowsBlue2": {
      "format": 6407,
      "internalFormat": 6407,
      "sampler": "sampler_0",
      "source": "WindowsBlue2",
      "target": 3553,
      "type": 5121
    },
    "texture_Wood": {
      "format": 6407,
      "internalFormat": 6407,
      "sampler": "sampler_0",
      "source": "Wood",
      "target": 3553,
      "type": 5121
    }
  },
  "extensionsUsed": [],
  "animations": {},
  "cameras": {},
  "techniques": {
    "technique0": {
      "attributes": {
        "a_position": "position",
        "a_normal": "normal",
        "a_texcoord_0": "texcoord_0"
      },
      "parameters": {
        "modelViewMatrix": {
          "semantic": "MODELVIEW",
          "type": 35676
        },
        "projectionMatrix": {
          "semantic": "PROJECTION",
          "type": 35676
        },
        "normalMatrix": {
          "semantic": "MODELVIEWINVERSETRANSPOSE",
          "type": 35675
        },
        "ambient": {
          "type": 35666
        },
        "diffuse": {
          "type": 35678
        },
        "emission": {
          "type": 35666
        },
        "specular": {
          "type": 35666
        },
        "shininess": {
          "type": 5126
        },
        "transparency": {
          "type": 5126
        },
        "position": {
          "semantic": "POSITION",
          "type": 35665
        },
        "normal": {
          "semantic": "NORMAL",
          "type": 35665
        },
        "texcoord_0": {
          "semantic": "TEXCOORD_0",
          "type": 35664
        }
      },
      "program": "program0",
      "states": {
        "enable": [
          2884,
          2929
        ]
      },
      "uniforms": {
        "u_modelViewMatrix": "modelViewMatrix",
        "u_projectionMatrix": "projectionMatrix",
        "u_normalMatrix": "normalMatrix",
        "u_ambient": "ambient",
        "u_diffuse": "diffuse",
        "u_emission": "emission",
        "u_specular": "specular",
        "u_shininess": "shininess",
        "u_transparency": "transparency"
      }
    }
  },
  "programs": {
    "program0": {
      "attributes": [
        "a_position",
        "a_normal",
        "a_texcoord_0"
      ],
      "fragmentShader": "fragmentShader0",
      "vertexShader": "vertexShader0"
    }
  },
  "shaders": {
    "vertexShader0": {
      "type": 35633,
      "uri": "data:text/plain;base64,"
    },
    "fragmentShader0": {
      "type": 35632,
      "uri": "data:text/plain;base64,"
    }
  },
  "skins": {},
  "extensions": {}
}
