<?xml version="1.0" encoding="iso-8859-1"?>
<!-- Generator: Adobe Illustrator 19.0.0, SVG Export Plug-In . SVG Version: 6.00 Build 0)  -->
<svg version="1.1" id="Layer_1" xmlns="http://www.w3.org/2000/svg" xmlns:xlink="http://www.w3.org/1999/xlink" x="0px" y="0px"
	 viewBox="0 0 473.654 473.654" style="enable-background:new 0 0 473.654 473.654;" xml:space="preserve">
<circle style="fill:#E79E2D;" cx="236.827" cy="236.827" r="236.827"/>
<path style="fill:#FFFFFF;" d="M384.922,223.727c-16.106-16.106-32.213-32.205-48.319-48.308
	c-10.228-10.224-26.035,5.703-15.785,15.953c9.708,9.708,19.416,19.408,29.124,29.116c-32.893,0-65.787,0-98.68,0
	c-0.026,0-0.049-0.007-0.075-0.007c-0.718,0-1.44,0-2.161,0c0-33.637,0-67.271,0-100.909c9.734,9.734,19.468,19.464,29.199,29.199
	c10.224,10.224,26.035-5.703,15.785-15.953c-16.106-16.106-32.213-32.209-48.319-48.315c-4.338-4.338-11.563-4.222-15.867,0.082
	c-16.103,16.106-32.205,32.209-48.308,48.315c-10.224,10.224,5.703,26.035,15.953,15.785c9.708-9.708,19.412-19.412,29.12-29.124
	c0,33.641,0,67.279,0,100.92c-33.641,0-67.279,0-100.92,0c9.734-9.734,19.464-19.464,29.199-29.202
	c10.224-10.224-5.703-26.035-15.953-15.785c-16.106,16.11-32.209,32.213-48.315,48.323c-4.338,4.338-4.222,11.563,0.082,15.867
	c16.106,16.106,32.213,32.205,48.319,48.308c10.228,10.224,26.035-5.703,15.785-15.953c-9.708-9.708-19.416-19.408-29.124-29.116
	c33.641,0,67.279,0,100.92,0c0,33.637,0,67.271,0,100.909c-9.734-9.734-19.468-19.464-29.202-29.199
	c-10.224-10.224-26.035,5.703-15.785,15.953c16.11,16.106,32.216,32.209,48.323,48.315c4.338,4.338,11.563,4.222,15.867-0.082
	c16.103-16.106,32.205-32.209,48.308-48.315c10.224-10.224-5.703-26.035-15.953-15.785c-9.708,9.708-19.412,19.412-29.12,29.124
	c0-33.637,0-67.275,0-100.912c33.637,0,67.271,0,100.909,0c-9.73,9.734-19.464,19.461-29.195,29.195
	c-10.224,10.224,5.703,26.035,15.953,15.785c16.106-16.106,32.209-32.209,48.315-48.315
	C389.342,235.257,389.226,228.028,384.922,223.727z"/>
<g>
</g>
<g>
</g>
<g>
</g>
<g>
</g>
<g>
</g>
<g>
</g>
<g>
</g>
<g>
</g>
<g>
</g>
<g>
</g>
<g>
</g>
<g>
</g>
<g>
</g>
<g>
</g>
<g>
</g>
</svg>
