{
  "accessors": {
    "accessor_index_0": {
      "bufferView": "bufferView_1",
      "byteOffset": 0,
      "byteStride": 0,
      "componentType": 5123,
      "count": 9300,
      "type": "SCALAR",
      "min": [
        0
      ],
      "max": [
        7114
      ]
    },
    "accessor_index_1": {
      "bufferView": "bufferView_1",
      "byteOffset": 18600,
      "byteStride": 0,
      "componentType": 5123,
      "count": 3012,
      "type": "SCALAR",
      "min": [
        2703
      ],
      "max": [
        8199
      ]
    },
    "accessor_index_2": {
      "bufferView": "bufferView_1",
      "byteOffset": 24624,
      "byteStride": 0,
      "componentType": 5123,
      "count": 5448,
      "type": "SCALAR",
      "min": [
        4443
      ],
      "max": [
        6660
      ]
    },
    "accessor_index_3": {
      "bufferView": "bufferView_1",
      "byteOffset": 35520,
      "byteStride": 0,
      "componentType": 5123,
      "count": 2676,
      "type": "SCALAR",
      "min": [
        7115
      ],
      "max": [
        9585
      ]
    },
    "accessor_index_4": {
      "bufferView": "bufferView_1",
      "byteOffset": 40872,
      "byteStride": 0,
      "componentType": 5123,
      "count": 168,
      "type": "SCALAR",
      "min": [
        9586
      ],
      "max": [
        9705
      ]
    },
    "accessor_position": {
      "bufferView": "bufferView_0",
      "byteOffset": 0,
      "byteStride": 0,
      "componentType": 5126,
      "count": 7943,
      "min": [
        -98.339111328125,
        -17.92757797241211,
        -118.28419494628906
      ],
      "max": [
        96.20416259765625,
        665.8433227539062,
        76.25909423828125
      ],
      "type": "VEC3"
    },
    "accessor_normal": {
      "bufferView": "bufferView_0",
      "byteOffset": 95316,
      "byteStride": 0,
      "componentType": 5126,
      "count": 7943,
      "type": "VEC3",
      "min": [
        -1,
        -1,
        -1
      ],
      "max": [
        1,
        1,
        1
      ]
    },
    "accessor_uv": {
      "bufferView": "bufferView_0",
      "byteOffset": 190632,
      "byteStride": 0,
      "componentType": 5126,
      "count": 7943,
      "type": "VEC2",
      "min": [
        -0.026982000097632408,
        -0.9990010261535645
      ],
      "max": [
        1.9990019798278809,
        0.9995009899139404
      ]
    }
  },
  "asset": {
    "generator": "OBJ2GLTF",
    "premultipliedAlpha": true,
    "profile": {
      "api": "WebGL",
      "version": "1.0"
    },
    "version": "1.0"
  },
  "buffers": {
    "buffer_0": {
      "type": "arraybuffer",
      "byteLength": 295384,
      "uri": "data:application/octet-stream;base64,"
    }
  },
  "bufferViews": {
    "bufferView_0": {
      "buffer": "buffer_0",
      "byteLength": 254176,
      "byteOffset": 0,
      "target": 34962
    },
    "bufferView_1": {
      "buffer": "buffer_0",
      "byteLength": 41208,
      "byteOffset": 254176,
      "target": 34963
    }
  },
  "images": {
    "STUCCO8": {
      "uri": "STUCCO8.JPG"
    },
    "greek-wa": {
      "uri": "greek-wa.jpeg"
    },
    "PLATEOX2": {
      "uri": "PLATEOX2.JPG"
    },
    "DRIFTWD": {
      "uri": "DRIFTWD.JPG"
    },
    "TUTSHNGL": {
      "uri": "TUTSHNGL.JPG"
    }
  },
  "materials": {
    "material_Concrete_Brown_S": {
      "name": "Concrete_Brown_S",
      "extensions": {},
      "values": {
        "ambient": [
          0,
          0,
          0,
          1
        ],
        "diffuse": "texture_STUCCO8",
        "emission": [
          0,
          0,
          0,
          1
        ],
        "specular": [
          0.043922,
          0.043922,
          0.043922,
          1
        ],
        "shininess": 96.078431,
        "transparency": 1
      },
      "technique": "technique0"
    },
    "material_Material__4": {
      "name": "Material__4",
      "extensions": {},
      "values": {
        "ambient": [
          0,
          0,
          0,
          1
        ],
        "diffuse": "texture_greek-wa",
        "emission": [
          0,
          0,
          0,
          1
        ],
        "specular": [
          0.063922,
          0.063922,
          0.063922,
          1
        ],
        "shininess": 96.078431,
        "transparency": 1
      },
      "technique": "technique0"
    },
    "material_Metal_PlateOX": {
      "name": "Metal_PlateOX",
      "extensions": {},
      "values": {
        "ambient": [
          0,
          0,
          0,
          1
        ],
        "diffuse": "texture_PLATEOX2",
        "emission": [
          0,
          0,
          0,
          1
        ],
        "specular": [
          0.089804,
          0.089804,
          0.089804,
          1
        ],
        "shininess": 96.078431,
        "transparency": 1
      },
      "technique": "technique0"
    },
    "material_Wood_Driftwood": {
      "name": "Wood_Driftwood",
      "extensions": {},
      "values": {
        "ambient": [
          0,
          0,
          0,
          1
        ],
        "diffuse": "texture_DRIFTWD",
        "emission": [
          0,
          0,
          0,
          1
        ],
        "specular": [
          0.043922,
          0.043922,
          0.043922,
          1
        ],
        "shininess": 96.078431,
        "transparency": 1
      },
      "technique": "technique0"
    },
    "material_Wood_Shingle": {
      "name": "Wood_Shingle",
      "extensions": {},
      "values": {
        "ambient": [
          0,
          0,
          0,
          1
        ],
        "diffuse": "texture_TUTSHNGL",
        "emission": [
          0,
          0,
          0,
          1
        ],
        "specular": [
          0.048627,
          0.048627,
          0.048627,
          1
        ],
        "shininess": 96.078431,
        "transparency": 1
      },
      "technique": "technique0"
    }
  },
  "meshes": {
    "mesh_model": {
      "name": "model",
      "primitives": [
        {
          "attributes": {
            "POSITION": "accessor_position",
            "NORMAL": "accessor_normal",
            "TEXCOORD_0": "accessor_uv"
          },
          "indices": "accessor_index_0",
          "material": "material_Concrete_Brown_S",
          "mode": 4
        },
        {
          "attributes": {
            "POSITION": "accessor_position",
            "NORMAL": "accessor_normal",
            "TEXCOORD_0": "accessor_uv"
          },
          "indices": "accessor_index_1",
          "material": "material_Metal_PlateOX",
          "mode": 4
        },
        {
          "attributes": {
            "POSITION": "accessor_position",
            "NORMAL": "accessor_normal",
            "TEXCOORD_0": "accessor_uv"
          },
          "indices": "accessor_index_2",
          "material": "material_Wood_Shingle",
          "mode": 4
        },
        {
          "attributes": {
            "POSITION": "accessor_position",
            "NORMAL": "accessor_normal",
            "TEXCOORD_0": "accessor_uv"
          },
          "indices": "accessor_index_3",
          "material": "material_Material__4",
          "mode": 4
        },
        {
          "attributes": {
            "POSITION": "accessor_position",
            "NORMAL": "accessor_normal",
            "TEXCOORD_0": "accessor_uv"
          },
          "indices": "accessor_index_4",
          "material": "material_Wood_Driftwood",
          "mode": 4
        }
      ]
    }
  },
  "nodes": {
    "rootNode": {
      "children": [],
      "meshes": [
        "mesh_model"
      ],
      "matrix": [
        1,
        0,
        0,
        0,
        0,
        1,
        0,
        0,
        0,
        0,
        1,
        0,
        0,
        0,
        0,
        1
      ]
    }
  },
  "samplers": {
    "sampler_0": {
      "magFilter": 9729,
      "minFilter": 9986,
      "wrapS": 10497,
      "wrapT": 10497
    }
  },
  "scene": "scene_model",
  "scenes": {
    "scene_model": {
      "nodes": [
        "rootNode"
      ]
    }
  },
  "textures": {
    "texture_STUCCO8": {
      "format": 6407,
      "internalFormat": 6407,
      "sampler": "sampler_0",
      "source": "STUCCO8",
      "target": 3553,
      "type": 5121
    },
    "texture_greek-wa": {
      "format": 6407,
      "internalFormat": 6407,
      "sampler": "sampler_0",
      "source": "greek-wa",
      "target": 3553,
      "type": 5121
    },
    "texture_PLATEOX2": {
      "format": 6407,
      "internalFormat": 6407,
      "sampler": "sampler_0",
      "source": "PLATEOX2",
      "target": 3553,
      "type": 5121
    },
    "texture_DRIFTWD": {
      "format": 6407,
      "internalFormat": 6407,
      "sampler": "sampler_0",
      "source": "DRIFTWD",
      "target": 3553,
      "type": 5121
    },
    "texture_TUTSHNGL": {
      "format": 6407,
      "internalFormat": 6407,
      "sampler": "sampler_0",
      "source": "TUTSHNGL",
      "target": 3553,
      "type": 5121
    }
  },
  "extensionsUsed": [],
  "animations": {},
  "cameras": {},
  "techniques": {
    "technique0": {
      "attributes": {
        "a_position": "position",
        "a_normal": "normal",
        "a_texcoord_0": "texcoord_0"
      },
      "parameters": {
        "modelViewMatrix": {
          "semantic": "MODELVIEW",
          "type": 35676
        },
        "projectionMatrix": {
          "semantic": "PROJECTION",
          "type": 35676
        },
        "normalMatrix": {
          "semantic": "MODELVIEWINVERSETRANSPOSE",
          "type": 35675
        },
        "ambient": {
          "type": 35666
        },
        "diffuse": {
          "type": 35678
        },
        "emission": {
          "type": 35666
        },
        "specular": {
          "type": 35666
        },
        "shininess": {
          "type": 5126
        },
        "transparency": {
          "type": 5126
        },
        "position": {
          "semantic": "POSITION",
          "type": 35665
        },
        "normal": {
          "semantic": "NORMAL",
          "type": 35665
        },
        "texcoord_0": {
          "semantic": "TEXCOORD_0",
          "type": 35664
        }
      },
      "program": "program0",
      "states": {
        "enable": [
          2884,
          2929
        ]
      },
      "uniforms": {
        "u_modelViewMatrix": "modelViewMatrix",
        "u_projectionMatrix": "projectionMatrix",
        "u_normalMatrix": "normalMatrix",
        "u_ambient": "ambient",
        "u_diffuse": "diffuse",
        "u_emission": "emission",
        "u_specular": "specular",
        "u_shininess": "shininess",
        "u_transparency": "transparency"
      }
    }
  },
  "programs": {
    "program0": {
      "attributes": [
        "a_position",
        "a_normal",
        "a_texcoord_0"
      ],
      "fragmentShader": "fragmentShader0",
      "vertexShader": "vertexShader0"
    }
  },
  "shaders": {
    "vertexShader0": {
      "type": 35633,
      "uri": "data:text/plain;base64,"
    },
    "fragmentShader0": {
      "type": 35632,
      "uri": "data:text/plain;base64,"
    }
  },
  "skins": {},
  "extensions": {}
}
